<mxfile host="app.diagrams.net" agent="Mozilla/5.0 (Macintosh; Intel Mac OS X 10_15_7) AppleWebKit/537.36 (KHTML, like Gecko) Chrome/134.0.0.0 Safari/537.36" version="26.1.0">
  <diagram name="Page-1" id="_O-HcJ48vpcqyEU4pD1O">
    <mxGraphModel dx="1434" dy="761" grid="1" gridSize="10" guides="1" tooltips="1" connect="1" arrows="1" fold="1" page="1" pageScale="1" pageWidth="827" pageHeight="1169" math="0" shadow="0">
      <root>
        <mxCell id="0" />
        <mxCell id="1" parent="0" />
        <mxCell id="FmY2miY7o2QiwGdZYJ21-17" value="" style="whiteSpace=wrap;html=1;aspect=fixed;" vertex="1" parent="1">
          <mxGeometry x="10" width="800" height="800" as="geometry" />
        </mxCell>
        <mxCell id="FmY2miY7o2QiwGdZYJ21-1" value="&lt;div&gt;&lt;br&gt;&lt;/div&gt;&lt;b&gt;Python Script&lt;br&gt;(Producing traffic_data events)&lt;/b&gt;" style="rounded=1;whiteSpace=wrap;html=1;" vertex="1" parent="1">
          <mxGeometry x="10" y="215" width="210" height="180" as="geometry" />
        </mxCell>
        <mxCell id="FmY2miY7o2QiwGdZYJ21-4" value="" style="shape=image;html=1;verticalAlign=top;verticalLabelPosition=bottom;labelBackgroundColor=#ffffff;imageAspect=0;aspect=fixed;image=https://cdn0.iconfinder.com/data/icons/long-shadow-web-icons/512/python-128.png" vertex="1" parent="1">
          <mxGeometry x="20" y="225" width="70" height="70" as="geometry" />
        </mxCell>
        <mxCell id="FmY2miY7o2QiwGdZYJ21-6" value="" style="shape=image;verticalLabelPosition=bottom;labelBackgroundColor=default;verticalAlign=top;aspect=fixed;imageAspect=0;image=data:image/png,iVBORw0KGgoAAAANSUhEUgAAAzAAAAFNCAYAAADfK4otAAAACXBIWXMAAAsTAAALEwEAmpwYAAAgAElEQVR4nOzdd5hU5fUH8O85770zs7uwdAHpAoK9UHaXbtfEqNGYWBJLiiWaqLFgTew9pqgxGo2aaIwmGqO/qLESkSrYG0oTUDoCW2fufd/z++PuIiLi7uydsnA+z7MPsHvve8/MsrP3zPue85KIQCmllFJKKaXaAi50AEoppZRSSinVXJrAKKWUUkoppdoMTWCUUkoppZRSbYZX6ACUUkoppb7O7NtOHdpt6fQDOFw3zoVBOzDBJ6pO+52n1HTdecqu5zw0q9AxKqXyg7SIXymllFLFasGvDz8+8enMkyCyg4eglyEkLXkwsIAIrJMAMCsypuS/dZ2HPDLk4uf+W+iYlVK5pQmMUkoppYrOb4Dy71ww6PpEuOZYMSUdSSyMC+AAWPIgIAgRWAAPISACB1rjTOm/P/3ZA5cM6zt2aaEfg1IqNzSBUUoppVRRuQ9ry/c/d7fbfVdzLLMxUXLCCMkDQWAQQkAgCACCg4EA8GHhxLkMlz5th+x3af+f3PdGoR+LUip+msAopZRSqmj8Fij/zrm9bvck873QJH12IQCA4bZ4noDAcCAILHlIiz8dQw44u/8pf56Rj7iVUvmjCYxSSimlisbH5/a9NSn1p2dMqUnaOniSQcgJCGiL55E4CAiOPDAsPFg4Z2evGfHjU4ced/PsPIWvlMoDbaOslFJKqaLwyYVDr2hvP/sR2JiErQPDos60h4P52nOFGCACNc7UOAGcSQ3rNOuBq+4A2uc6dqVU/mgCo5RSSqmCW/C7Yw71M8tPSXvtSpwABg4BJWAkhJHga8+P6mAIRqIlZyH5EBEIwv32u2i3ibmOXymVP5rAKKWUUqrg/EWTTyf2ejhE9S6WDBgODAdHXz8Dw7AgyIZjGQ5GQhCbRPvM8lM/uuHQb+b4ISil8kQTGKWUUkoV1MdXTzjZIBgNcfDd18+2NIeAEFAC5CxIpGvpitd/9LguJVNqq6AJjFJKKaUKij/76Ds+gg4NlIKjLRfrt4QRCwEQmhQ8afjmXpfs/vPYBldKFYwmMEoppZQqmDk3f+tbjLBSwGARSEy3JhT1JIMQg1wIsJ9I1n1y3JuPX75jLBdQShWMJjBKKaWUKpjSlXMO9+A6Wxh4zSjWbwkhhoCiccVBiHfuMvX+y2K9iFIq7zSBUUoppVRBvFD9aRcO1+/BjcvGhAiEePenI0hjIgOAPXjB+m98eO3B3431IkqpvNIERimllFIFMeDWkw4wEg5xeboeuwDEpnPJ6rfOXbbgxX55uqxSKmaawCillFKqIBLrF1YQ0F7inXT5Sty4twyLGxn+6Wc/zc9VlVJx0wRGKaWUUgXBwfqdmOPrOvZ1LHkwEiDJFtSw8ug595w+Om8XV0rFRhMYpZRSSuXd4pduHQiRwS6PtyIkAhaLUABDGFD2wX/OztvFlVKx0QRGKaWUUnlXM/3ZIUyuG2Iu2t8SoagzGUBgAoytP3DhdfucmLcAlFKx0ARGKaWUUnlXUr+0LzmXymP+AuDz5WpOAI9Rnlr19lkffvjcgHxGoZRqHU1glFJKKZV3Jr1uF2L4+cxfpHF7yw3/FsCJ2T157zln5DEMpVQraQKjlFJKqbxjl96RN0ko8ksgAngEk2pYfsxH955ZUaBAlFItpAmMUkoppfLqb1jXgVy6U7SkK38JDDXOwWz4FxEcBMLcK/meFvQr1VZoAqOUUkqpvNrpzomDAenlABDytY3l5jkwLHkoC1YdNv/KsacXNBilVLNoAqOUUkqpvOq04v2dIdKpcMvHPmckhJEAGa+s1Fs376RXUNOl0DEppbZMExillFJK5VWq/rOdGEi1JoEhxHMTY8mDcSFIBJ6zI/pdXHFBDMMqpXJIExillFJK5ZXNrOtnTZKMBFmdTxCE8NZA3BIWCxJk3QyAILBsAAg8I5SoX37M+3edqgX9ShUxTWCUUkoplVckmR6+BLDkZXU+E+DIezl1+BU/bKDkh2CAJbtamqioP0p+RICQvb7tPnr6vKwGU0rlRXavHEoppZRSWZj70l0DyyTo78GiHiUwCFs8hnUEKmm/vHz8Gc+tefqu24Jw2XUlCMuCVt7WCIAEAoTOfWPB5aN/PODyKXe3asAis+yeE8fVfbqwN9LrtuNM7SAWa0BgXwLnKGUp1X5+TXnvN3Y874kXCx2rUluiCYxSSiml8qbh9ReGlMN2DeGBYVt8PhEg4tL1qa6vAUD/69+89eNz+xwYEg4FWr8tZggPPrlSu37+Gcvf+scL3Xc/ekGrBy2QefefNcxfMLuK65fuYW24o+cadiol20EcDBtjBAwHBouFcfWwNetcefWizxad2+s1m+z8TPqoiQ8NHfb9pYV+HEptShMYpZRSSuVNomZZTxFOOPZgXAaOGM3bCyZa6kXR39a79j3ebfqK6zzkvmD1W1Ul5LoEMBAISAig7BIaK4Qk0jtXP3TF97H70VdlNUgBvPniX3qVznhwr9Rn88cbWz2iBG4HhnRnSMJAELAHiAGzQEQAWPguDUseHAyYHDOhSwllDnANn4z3Hpp4+IJn7vn9gEteerTQj02pjWkCo5RSSqm8KaldNkSIk5DPN5T8OiTRjjFCaExgzNp2u4xe0fT1AZc8/+iiC/sfZtN1Jzg2AAUwTuAou8J+lhAhJxNl6aUnvPTgZY/sc/xVc7IaKMfeevkfA8qm3TeirHrR6Jp0XY8uUr9rwtb1ETLtwX7jc0Vw0rjbTuNzvnFa11SHRFHaBwsCBCD2EiXIjAtWvztw7uVjkoMuf+Vv+X58Sn0VTWCUUkoplTck6U6GBCEAR6ZZ5zQdR4233pb9hb0P+PlHGx8T7HzoH/nNf43xEe7ghCDZzr6QgecCkFhAMHDQ6/efh+Ov+klWg8XsX0CX4bcePSy5bM6EMPNZn25hw95E6BuS366jpCFEcCYJJwRI63bZEQFCEDxyvTqsfeua9/948uKdTrt3cmwPRqlW0ARGKaWUUnlRg2VdxQZ7Nvb8avZ5AgJBwGJhYWBN8sNNjxl4wm3TFl36vztMzaKrYEpTAQOetLzGxohFNAnBsF6CfFtz7KLLq97se/m021o8WCudWI2SXz7wk51p+Tsj/Pplw0cH64Y74b4Z9jv55ECGAHFISBoheQhhACF4CEDiINT6ZrMh+fAZ/cvnv3gSAE1gVFHQBEYppZRSebHmrl/1NbC9omoWafZNdpS8RMdaGCDR7rPNHXfj1W/fcfEvehxqwON9aYCgeTM8m14roAQMLMhaMPtlXLPwhws/eOb/+g89eGGLB2yhRQ9csHf9otf2LFm7aPj14dphFtSLCd0ISAgnARF4sIBzsGRAYEQLxAQeQjTVCsWRvAAARCBEMEFtxaTHr+8/4YgLF8YzsFLZ0wRGKaWUUnmRWf1J73awpUIMCJp9k01wCMlHUtIQsmvXl20/bXPH3QbULuy+5x9Kl766Owx3yrYnWWOjABAABwE57Jm47+en4voPL8pyyK/09LK53Qbfe3pV2fpPJoSZdXv7CAYlxXYDmQQxwUCiJAIEiN2Q9AlF3cOECJaijm7UmGzEiRtnpEDUp+/bT4+CJjCqCGgCo5RSSqm8oPoVgwhSJtKym2wBg+EgzBDr1pv+u8z/qmP7T3zmkWXn9z3cusxxHlxWjZWjGY2oaQAE8MhSJqg+Ycmtx7za+2d/fyyLITf4zXq0/9ZdRwxLrZk/hjJrRu5pGwYQoTeAjikmiBCEDUTQ2Cksiujz4D5P+poSQN4Qb7zJS3QNggVAsO389LoesV9AqSxoAqOUUkqpvEg2rNyNQJ5r8ZkU1b+QgWWqxrHnrtjS0TXDjr+5bOafRhDzYGn91jBwICTJbu8W/u9MAC1OYD697Xuj3YqPq8L6FcOOculBRoL+TOhsiJgMwcLACUHERY0KYog5TgKGkUB8cUUWmdpWaQKjlFJKqbwwtn5HImrxDTqLhSMDhsCRP39H9FyzpeMHHXPd6/Pfffb20tpF1xJTaWuTGBIX1cVIumLhLytP6n/l9Pu2dPz79/9il7JFs6r86sWjJawfaBAMJjJdPWLPUBgtiYOHDAwgHhKShic22o+FeEO3tWIQxRLVBdlkectzT6VyQBMYpZRSSuXcmx+92Gs7cd1auHoMQLSky5EPdhmQl/pSB7LNufD82X+85cpeByVc5pDPr8nIZnojaiIQwiOUenWLTrwe+OeFQE3T1yd/MLlnn0d/eSBXL9/dy6zeu5PYQY6os8dUKkxw8MDiALEIYSDwQHDwXRoEIKQEHCXBsI01J/EvBcuWADCwSFNyOTr2eqvQ8SgFaAKjlFJKqTwof/6enQium6Dl3bEEBBYBxFmUdFrcnHMeKUf6vW7Dbu2ydNoI8bkrnMCIwGWRG0jjrIgFw3eZ0SdctOMflvba85m6Tz7o7AXrxg6S+t0Iri+ByqKyFAYBsBJF3/QYgMbua02fIwMBosQFjS2fiyh5AQAHgwQF8Gwwt9fPH36p0PEoBWgCo5RSSqk8cCs/LQPEz+ZcIQKTA4jXpsu3/6C55+088YmnF1/Y7x9+On0aMShkAbdidZYAIGKf0p8dL/MnfaeMxCfAa9ylJlpsVTyrv2JhYJF2DE52mlnoWJRqElOTcKWUUkqpr8YNqwaCOJlNeYeDBwMHC7PggaN+O6Ml54Yjvv9HEjfXb+yl1VoCgAmcQFhCgOeiBsZFVLUSLyaCAB/XDxjzcKFjUaqJJjBKKaWUyrlkWL03g7xsbvQdEUgcANRf3r//2pacO+Coa96qLe93dz28hqwuvhkCQkA+QniNy9uijSS3NtEyOEHgt//vDqfeM6vQ8SjVRBMYpZRSSuUch3W9hExW51JjZ+HAb788m/N3uPLVG4W956J+WgSWEAKGQ3bxAGg8O5p7ifZfKa7alWw1JWQsDiCGE56bGfqNPxc6LqU2pgmMUkoppXLqrg8ndXVAB2oqVG8hgxAWBvBSH2cbQ0PPYXezZFaBGEFTxy+E2Q73haL8rYmREAElEHICflhbX1fW9w+DT76tRcv2lMo1TWCUUkoplVMHPHnTXgT0gWS3jYgRiwAc+qku87ONYdAv/v1E2uv8V882WEcctSsW2pCIqIilaF8aJwjTXvtHBl316m8KHZNSm9IERimllFI5lVy7fJCRsIOjLJufEkFAtbZzr49aE8dL3//j9Q5mSomko65hRdayuBiwWFhOwEj48uxznzyv0PEotTmawCillFIqp2x6fX+I9cMsd29wZEAiKxsO/PF7rYnjB7sfsKKuXf+/hELVjjwYKXz/MII07gxDwMZ7xIA3mh2KjiFEe9IYCDim3IskqgzaUMNDDCdu0fo+Y246tOewVfFcRal4aQKjlFJKqZwytnqo9ctgJLuaEwcDn9y6szvuu6K1sQy4atY9aUo96yODMNsZoRhZGFgYODCAqNsai4WRECwOBDQmLARxIhDJiHOLMuLPYRemBbRREtIy0RkMQgjjLIQNYMPldR2HXjTknMeeifWBKhUjTWCUUkoplTN/ATpa0AAjIbIt4ic4ZEz7D/7TDUEcMWV6Db+vwZmVPmVXkxMnFosSV4ekq4eAkOEULCdATAARArCrh7/auPT0hkTHK6hdn1MWj7n4IIz49kWOaL2HEJYMsumCZsQhZCBEKULD8IJ0XX37fncMuux/f4v/kSoVn8K/9aCUUkqprdbw+87uT+I6MRxECNLC+2wCIGIzmZKusXXCGvyLf/3fwvN3fNTYz04hAheukD9aMpY2pRAAnoQglxYBatLwFoSm9HW/tNOc9HZDZv3xhL9Nv7Y9qgFg9VM37pR65YGfhuR3aqAUUrYWllt+SydgeBIA8ADJ1Ke97W7rf9XrV8T8IJWKnSYwSimllMqZkk/f3tWD7eJAEGK0dKkTEQAn1V6y4ztxxlV99K+uMX8/f68UhRU2z2UwRE3zJYwADN/V1wt4cUglr9lk2Rthz53eLvn5AzN7o92GGpRrG//8BZA6+8Xbb6zl9vuXuFoAgpB8MFyLO6oJAQQfIg0BUdmdvW/+cGJcj1GpXNIERimllFI5k6hbMUSAEgeCA4GzKpqX2vR2A1fHGdduI49fsviJm/5u6z/dy3NBIuBEY6G8NKuw34HBsI31J0DIfmPtioUjhsDASBAlbURgODjyIc4CNsw4MitC4nmS6PBu2GG3V+v3OuSVgQedM/frrvuzCwZdUurWHejIh2UfvmRAJM1KXlgsMpyC76L6n4Q0QOAhTSX/7XfGkvO3rh1t1NZMExillFJK5U66pjNTNO/CaHnNCQGwMJ9c8J0/fPB4zKE9cOEbdx73qz6Heiz7BZRAma1GA5fAfE2tDkE2JCqWGAQg4dKwxMhwEgYhjISwnIzaElsJAvZXO6HFxuvwlmvfa8q8gROmTTj28g9aEu+ii3a9rMSuPyPgVILEbdSxrHkzL5Y8sFh4kkGaU7CUAKx7N9jjsMtlh1bs6qlUnmkCo5RSSqmccRIOATHgBATXuIys+QSCkEvmP94Rmbhju6gd6hf33PN3tcte36lM6raPko9mNBqQzxMHgsCXAJY9EAQpZBA6siE4QxIucZx8U8q3n1qz/dDpn5x6/7v7AesBoE8LY114ZdWJpfWfnGUMdcqI39KHCiDq5uZJBpYSSCIDduGC1T2qJg498Q+zsxpQqQLRBEYppZRSsVtYt7CH+8OZE3wX7h71PN1or5EWsl77lXHGtrE+5z355McXDR0hDbUXh17CJGzD125wKWQAAhISAhBYQUMoJmSEKx2l3s2UdX1Ruu44r8cJv3w91WnXxU3nDc0yxo9uOuzQsnULfkWe1yUQAovLahNOXxoQUiLaS0bs/DXtd75w6MT/+0+WYSlVMJrAKKWUUioWz9Uu327w748fZdYu2M/Y+nGltqFrhhLdSCwAgiNu0caRBMA5CJe1j7X+ZVOrTvzTHT3u+s5hSUnvsWmXNAE1Ln2jDcX3VgTiXK2FfJIxZe/WlWw3qV1Zl0+9Pfeds90hE9+OM7Y3H/rlLl2Xz7rcgx3ghGDhwVBLVnttnDgSmARsG+rqUz3+POSKyf+IM1al8kUTGKWUUkpl7YPHL98x+dbzI/yaJeN2sXWjSVx/JiojIoANPLhok0ZC85MXiXalZ3YIhNet6Thket8cPoZhQ8cuXVTe/25v/dzrhb0yacxiDLkoYgewhGlH+CxDJXNhyqaGHXpNXTzu1NfGjj1m8RYHb6Uus+7+lY9gWFNrAdPMUhUBgcWC4WARLW8jIkBcQ53f5bf9r3vvmlzGrVQuaQKjlFJKqRb58NFLdvffemEPv2bpvh0kPZoQbm+AMmGGEEOkqUwkmyVj0YyBIwMWgUG4JjPh8BYVu2fjvF/MuOs3V/Y+OCEN3wQIIcgFjlZ6CBfXeZ2mmNLt3qvrudPb1x13z2v3t0caAPrnMJ4Tq+FdftUOd5Qi8y1k0buNxYIgyFASQhx1QROBME/616UfXXtOLoJWKk80gVFKKaXU15r157N27Tx/6v5+w7LRHVx9hQh1NyQJIQ9CHqyzLd3iZbNIAEeICv7ZAA7LRu525JLWj7xlj5Qj81GfsVe5xf+rF04Jpzq+tXr7vZ/d47S7Z2583P25DqTRtdcMuhO27iQWYZtV6RDBkgcBIeXqQRDUUumU5IQzzj+nHLVxx6tUPpGIdv1WSiml1BcNXwr/r498r6rd6jn7oXbl+KSr6wORPs4kfURLkaIaFURF5YC0uMPYVxFh+JJG2pTAkn9v35s+/mEsA7cR8y4ddnH7mvmXifFTIUzzOqNtgiCwMCAIkq4BNab9K3UD9z976On3accx1ebpDIxSSimlAABz6hdvn/z9aWNo7cKRT2ZWjzYuGOxAndnzyFEKgEBEQOJgG1vyChkE7MGIzbLH2BeRSDQDIwCJdUh2nhPDsG3GwqsPOCxZt+Sn5PkpcQ6cRbcxINpoUyBIIkAdpT5a03PvX+ypyYvaSmgCo5RSSm3DltfO327VbWdVlK/54LDyYF2FBQ3w4NoZJogx0ZIu9/kGlE230wYWQgaMqN4iPgIBRzvbuzBASdc1MQ5e1N6/43v7l3/2xrU+o5cVAlrYtW1jBIcEHELh6qCs9+/2PPeJV2MOV6mC0QRGKaWU2sYs+vd1O7s3nxrNNUuHw9aN6iJBXw9hubAHgQeIwBZohXlUcG5BBDiYRSt77zY5lx3IisXHT1y1V4cPX/6tz9jFbtrLOQtCBqFDOpPodseAq2bfHkOIShUNrYFRSimltgGzH71u6HZv/7syqFs9OhVWT/Ak3YeIkyBCU4veDbcEWS5bioOAQCJgJljrpvX8zcpRBQsmTxYBHb1zet7PLIcRRcv0WoMIIBe4eq/DA/1uXHhiTGEqVTR0BkYppZTaSi340ykjeNGbY/z6JeO2d8GugOubIiQMOTRwyUYZS7TkiEhi6STWMhtvtAgIGIwQAIHYa8h3NIUQTBz0qySlv0FgWOFW1RIRABFBhsqeXHfjjPPjilGpYqIJjFJKKbUVee/WE0eWLHvzgETDyuEpCYYTXHdD5AsTRKI95S0MqHGfEGpKYiia/RCirOsusiKEplkgNM0FUZTWNHjlW30B/0cX7XpJh8zqnzhOeCE4q45jTUgEIEYaySnhqJMv2R3dV8QYqlJFQxMYpZRSqg07dB0St9xzxP6lK+eMkWD93h1duKuRoCdMgqOlYBzVs3whJ5EN7/LLJsvF8pq8ALAUdTAzCKJNMMnAF4eME0elHd7OazB59tElI08qTa/6mU9SlobAIIQRC0tZ3p6xB+fCpehbec3Ao658N95olSoemsAopZRSbdC8m755MFbPG/3HzLp9GHaoEHfxiOAjgCWCky9lLUXJd2mIYThKQpyAXFCfJu8T65XMpq6DZxQ6vlxZdP1+R5emF1+ToKB7Bj5CePAQwsFkNV5CAtSKt1I67nRdv7P/8XTM4SpVVLSIXymllGojFt57dgUteOHIRPXykQbhbkLUxZokIIDvGuBgEFIC1LgM6fPy/OJCaCw0BxCA4blwnQV9mvY7vcTtekyrH3PUq0P2OWurXT727p2n7dFlzj/vZeK9HKI9W6ixfXT0PXNfO8bGmIBQsKo62fvSIde+dmduolaqeOgMjFJKKVXkFt57ZgW9/9/jU5k1h1mDfoYNLCXBEoJdAACwZAAQfGmIOnlBoiVZsWwv2VzRTXgTggPEABRtcklggBycAOKw2hLPd6Z8VnWXfs/Ywye+sfPO+y/KY7AFsfCZG4d0nvP4LUTYC+KAxrbRxllY9hqTmS2LNvs0UbtpCEJHdaHX6XeavKhthc7AKKWUUkVqAVZsxxfve4afXnU8ww5kIkghGoW1QNQGOdoHniEIjAELQNZlHGOVpcRc63WcWttlx8lXn/L4Cw92QLrQMefTovP63ZmSulNC8mBcVPfTUk2tpokEDoQ0l/2t/00Ljs9BuEoVJZ2BUUoppYrQ23efNazz+w/f4ktmFLHxnBBcMWcujQgAM0HAaBA4L6RVYty89WXbP5XpMeLJ9868Z97RQA0APFjgWPNt8QUD/pBy648PuQQkNqvkBQBYLBx5EAismEn8vWsuizlUpYqaJjBKKaVUkZlz/cEHd1nxxuU+woqAk9G77S2si8inpnoWchaAZEIx84S9d6W012vVvXecct3xD878czs0AMAuhQ21YD6+bPebU8G6k61JpRK2Ho4YGU7Bk6DFY4WcQAIBQktv1O/x3XMGDz9ufg5CVqpo6RIypZRSqojMueEb3+qwfOatTOi3oamxSNbv1ucKEcCINk10kFoR/jTk1Nu2tOdzS/Y89tkxR56tN9WN5l015szSNXOu8ZjKG8hHia1FgylFwmXgsvi+MgQZ+B/U9Kg4a+j5/3o2ByErVdR0BkYppZQqEh/ddUJF++WzriA2/dzGbzBSPgvxsaGVL2/YVFEAMBgOBg4hGOJkfUDeIuGSV2vL+05aW/mDySMP+PECAOif12iL25ybDj+4w2cfXOBMohwuDQ+EkH0YcV/ag+ersES1LgQA7AG24ZOa8qFXavKitlWawCillFJF4Hag3REfvnCVgexV2Cp9gZEQIfnwJIxqLcgALhTAfZaB/1bG7/BWbefBL7Y7/Ocz+w49aGkhoy1m7z904S6dPp1ypRivj3EZWOLGOTUCwTW7Q5wjQkA+2rk61AvVhslevx16xeSHchu9UsVLExillFKqCBz8q8pTjctMMCQIwAXbv4VAMORAZJERXyBYTmLfD5PdZmU67/jioKP//YL0R8sLN7YxH771jwHls/7y65ATIzyxYDgESICzqGVyABLIIACcmNQ/+l7/9s3xR6xU26EJjFJKKVVgJwGpa6sXHA7j+6ENQZTf5GXjjSWtkyADsyak5AcmVf6/mu33fHbImQ9MaTpWK2ebp/wvZ13n4A4qcfWw5KGey+BLJquxPDgEjl3I7R+qvvHVib1ijlWptkYTGKWUUqrAzrvpyAqDcAg5gSXK2eyLNNZRMByEPp/lcTa0AFaluWw2lXb5X3XPPab/6gf3T3mkfEMRjGqBRRN3vN6T8HBDhAYugYCQcvUA0KyifQFF3yMAUcm+B1+CKVPPe/Gco7HdypwGr1QboAmMUkopVWDt180b7WC6EAgkgOQoiWEIRAQWDJaw3sJf6tibFZb3eznsP+r1gSf/bmrTsY/EfvVtw3u/rDiuU7D2VGakRKLNPIHmJS4AEE2+CSwZ+JKG4wRg5bXluxx5wdE9BmnyohQ0gVFKKaUKjjM1u3gkxkJgyQcjzN3FBA2BST0TlPd5HLuMmTXwqOvfzd3Fti3zr6o6rrz246s9oGMoTfNdLRWV9nsSIGNKwDazsqb73lfv9uM/TY87XqXaKk1glFJKqQJj21ACAsgBoOb2pmo5giBkb104sOqJgaf//f4cXWab9P5vjh3bce2HV/qgARYGjggmi732GA5pTsFHCBOm19RsZfYAACAASURBVNaUD7pu8IXP/isHISvVZulGlkoppVSBfXp+30cZwZFsA1gyIDggJ2mMgEUEYteFnPrIlnR9aU3vMY/ucdodM3NwsW3G63+7tN/2r97114znjU3ZNAJKwiANadxPp6UIBOtcXX1qu6sHXvfudTGHq1SbV1zb+iqllFLboCDR8ROxUatdIyFyk7wAAoYlQ8ReR4/cCK9u2QU95jzy+OJzez/00dX7HpmTi24Dytct6eqIBpRIgBAMT9Kw8LMaKyQfBgGSEqwPDvrZkzGHqtRWQRMYpZRSqsCkdLvZAqkPyYclr9kbHLYUQUAQWBCcCJgI1qR6ptBwTKdVr/5pyTndX1pw8a6XTnvo4qE5CWArNfD0+2ZnEuVPpx3DcgICakxEWy7h6hGgFA3G75p89q4DYw5Vqa2Cufzyywsdg1JKKbVNq65dXkMLph7iQ7pZmKw2O8yewIEB45d4TP1NUDOhyyfTjljz/O3j1k3/V/nq4ROWdEp0qs1jQG3S6tXLP0ktmbm/Yeq8YXE+tTwRJRBCBsok4IzLdKq2iZc6DK74LNZglWrjtAZGKaWUKgJzJ+50dcfM0ostJ0ggyNUyss1xjQsyTOOO8ZZ9sFiIoD6DxPthosPzwc4HPrjjCb99K29BtUGfXjTkMpdee0kKYbKBU/AkaPEYlhgJG0JY4MSEtaluEwde++4tOQhXqTZLl5AppZRSRUD6jnw2Q4mVoKj5btM+MAICSS5nZAQMB4aDI0ZIBuwChPBAhJISzuxdEqw8r/z1B59efH7fxz68fPx3Jy39sGsOA2qzep065yYinkWErJIXAPBdgLRJwCKBJNJeqmH10U/PfLB3zKEq1abpDIxSSilVJJZMHHynCdb+BOyRcdENcAOXotSuR8iJgsVFiFZDiQgEVC3Auw1+52eD3nv/b8cz//ZiwQIrQgsv3fvCVO2iK8kYv7X3WNEcnHMZv/PNfa7/cGIc8Sm1NdAaGKWUUqpIrCrvNif57lMjBdTbsQcjIYQYjsyGGZlCia5OIELSkPROBuvHees+Pmztc78/eOXUx0oyrn5luwEj1xU0yCKwoGefxR1n//Mbjv1uiOF7ZgjEQWa7JSvmzeq6x6FLYghRqTZPZ2CUUkqpIvLh77+/X+cFT/7GUWK3kDz4koaA4Ci7PUVyg+DA8MiCXQjnpCFjUu9nvI4v2p67PzP47IefL3SEhTTvl5WXtqv56DKwScRzmyVwVP7n7W+e96M4RlOqrdMERimllCoys284ckzvFZNvA/Ee5CwcFVvJqgACBJyELxkA1LTGDBa0xpF505b1fvqzfU75114TfjS30NHm20Oo6Tj23MFPJ8hWulbeZgkITAJYt3z9oEN+MPiMvz4XT5RKtV2awCillFJFaO41Bx5dvnrW1YDZ0RFByIGEYZyFpQRADnEsUcoWiYMQR00GICCRKI8BACI4JwFL+FGD321yfe8RDw/5+YMvFSzYAph75YST269963eOk+2dAAyX9TJAAuBLPdaZ7r8fcNPcs+KNVKm2RxMYpbYS++8/vmp9XX2pEf6WONuOmJMiUkUCiTasA8BsbRhOYsMpY8wzzP6qyZMnb9NLPZQqZu/9+rtjun7ywg0BkqN8EAICiAIQApBkt9N7vhABAgMRgZFgFQjvVbcf8mCww96Thp5w24eFji8fFp/b+2kPwcFGQoTkZ7m/D8GBkJQMMmQWVPfZ58c7nv2INk5Q2zRNYJRqo8aNG7dfOp0+zMBWQWQPIkoA2LB7xMY/29HfqXGVR7TMgxpbtTqRwDC9L2xmlpSV3/Lcc8+9X5AHpJTarNcn3TOoy1NXXs2u9tBSCcpClCAUD0wBCjkD0xxNN+5EBo4NENQvD72ON/e9ae7NhY4tH+Zds98POqyafYewVxbAg4GFtHB/nw2v6WD4CGAp+Vj3mz89KicBK9VGaAKjVBty8METBq1bU30dAfsRcycRAUSQzc/xxksZiChaZ20MnHXvG0N/nzzt1SvjjF0p1ToLLh//w2T1nNMtYfckMgkR0+Kb4XxzYHiwIBe6gBOvhx13/Evfyyb/vtBx5cvlNSj50RW9H/clODCEh6SrhyWvxeOwWFjy4MgDu8y6uu32PnXghf99OAchK9UmaAKjVBswenTlz23ozibIABIHcS5anwFAKLsbGNrCz74xBta5tcLm1unTZ/4yqwsopWK3ZMmLvTJ3nXdmquaTbxnYHYi5JKqnl8ZkJnqvnjb8O78IAgfesBEnw0GcW12d7PY3/4Czf9t3v9Pnf9W5Y8eOrZg8efKMPIabFwuvO+iIxMrX7vZJumQoASNhi84XRLMvRmzjRDohzYln+9y05KDcRKxU8dMERqkits/Y0b8KMukLBUiJc3lfLGKYEFr3KTzv0unTX703z5dXSn2Fd2oXdC+94Xvf82uXHJ90Dbs645c6GLCEMC5EyEkILHjDAqTcI3Gw5INh4cHBirgQ/otru+/9+10mPvXkls6tHLHXrQk/cebLU2cU95RSlhact8O9pW79SY7NFt88ag4iQFxYXddlr1N3uOSFh2IKUak2RRMYpYrQhLGjDk03NPyBmfs4l03RZzwIAhADxBDiWdOmzxhRsGCUUl+yACu2w3XHH2Q++/C4ZFA7SojKwQQLg4TLwIGznqVtKQsDIorqNJxb1uBv92DDGXf9emjfsUu/6pyqqpEHQ+Q+BrqLde9NfXX2LnkJNs8W/ubI8cnFkx9k5l5x3HcRBGlKvtzt5jePKUGXr3x+ldpaaQKjVJEZNariGYT2IIKFk8K+GRktRmn8OxGEuK6sfWqv55+fvE10EFKqrfg1kDjqlkMPdkvnjC+x6w9jCQaQ8YwAyNeveV8CWEE6zaUzbK/KX/f/xaNPbOn4iorhD/vGfDe0FgwA4l6bOvO1YfmJNv+WnN/vfuPqT2C0vvVCYwOWMGg/6OK+V0y7KYbwlGpTNIFRqkiMqqg4yLngIWbuJAWcdfkq1LgUhY2B8bwf/++VafcUOial1JfN/cvP98Kclw5L1q860kewk2H2HXKXyBBFNXWBM+80JLvdVX39tIf2RLtVX3V8VVXVt8WF94mz7QyBLRgmap1429SZs3+WmygL7817Tt+r67uPPZZg6W9j+F4QEZxg5hu/nnfIIWi3pvUjKtV2aAKjVBEYVTniDrHutI3flxOiVq+VjsvnHcuiv7HxwAanTJ4y80+FjEsp9dWWv3z3gIbn/nSEV7foKEYwjMlLkUjjTiRNP9PRGxPRRpQuKrsn/tKGiwSBhQHDwbgQjgwcGRhYWKGaBlP6mO075o5BP3tg+pZiqqoY+ZRhOiS04YbXNyECE4GNufuVqTN+EvsTUUQ+PX/gX0hqf0Dioowyy+V9IRmU2TqkKVUftOt5aZ8r37gl5lCVKmqawChVYFWVI19ncXuKuLwt9YgDM8Nj8+P/TZuhMzFKFbHzatD+7N+N/4G3+sNvs4Q7AXZ7j0ENlAQ7u6HGP3r54ailOuwXxnCNXbAEQMg+CARfMggFC21pr1v7XL3lG+jKyhGnsHN/AGA2d9/BzEgT9pk1fdakOB5zsZr/5zPGJN/5xwOGTT9ywYamBy3l4CHpapHxSmCtmRJe9Ph3+ncbsSwHIStVlDSBUapADjjggO1rq9fPg9hUMS4Zaw7DjPpQTpk9e7bOxCjVBrz3m++OTC5946hUuO5wH+FAkPEIDhYMBw+AwEj4pcJ/C0ZCAhCAkBOADeoDr93TweCDfrPDKXe+sqVrVlaMeMEQ9nX2q2/UjTGAl9z3lVdeeSmOx1nMPr5wyE0l6ZXnCntkwWBk8fovDCEXJT/ihVLS/fIe17x1TfzRKlWcNIFRqgD2O2y/7vXL1i0USKpNTbtshuf78A2PeXHytCmFjkUp1TyzHzpvaIe3nj26fXr5kSLhLobZBz7fFNeR+cLxBIEjD2QDWOO/LmW97+l9xau3b+kaoytGXOVEzicgKbLlm3Rmqp8yY3ZpKx9Wm/D2f367Q7cXrnqMmfeAc196rptDSCAugYRkYL0QoS19rfq7vz5qaOUxC+OPWKniowmMUnm295gx2/tBMJddWNL6XjSFRwCEqLZ8+z47/ffxxxcXOh6lVPNNf/M/vXo8dsX3qXbZN5K2Zi/D3D4kHySfz5YQolINa2Vt4Ld/xI354S39D7t0zleNOXj33Xt3SfnPeES7hNaCmlHnQUR1U2fOLovlQbUB8y7Z9fx2DcuvdjAJynIGBhTCkg9PBBYSwu944/bXz7kk/miVKj5c6ACU2paMGzeuZyJTP8/I1pG8RAQElFUv++T/Ch2JUqplKvf45if9r5h5Q7+bF41f32mPn9Rz2b9hw08tGEQEjwShkMCGM+u67nRa3xvnn7ql5GV0xcjruia9xQzsYp1rXvICQIg/iPNxFbv6g8/9eyDeOz6C7AYgB4DAYiFw8Ml5nF596L9m/7dnrIEqVaQ0gVEqj4JMeh4Bqa1t5lNEAMHuY8aM/mehY1FKZWfHX770cN+bPj5ibd/xxzCn/mpsennG8fJMouNtaw+55MSBl7z88FedO6ZiWOWYyuGLAXchALTkNY4IAOEr2y5vjXYde/JiKtvu6Yx4rdjti5r6L8AJgYh32vORc86KJ0KlipsuIVMqT6oqR7wB5/Zo6zUvmyJINAcDgI1BOgy/OWvW608VOCylVCst+OPJY2tXLTW7XvrMpC0dN7qq8k648BRxLqt5ZSYAnv+XKVNnnJhVoG3U4ncfH8h3n/qwxzIsjt8KTIB1WFSz23e/O/jk22bEMKRSRcsrdABKbQsqhw+70xjaw21lyQuADckLAMBZJIz5D4Ds31RUShWFAafdO3lLX68aWzUagX0YQC9I1ACgOUvGvoQIZN3rWYaZtWHDhg3zvMSpM2ZMOyXf1waAPrscMW9e+fW/K6ue9wdiatfaXw9WGISwb+L9p48GoAmM2qrpEjKlcmz8qFE/9HzvFJejVskSbUG34aNQCAJx0eZsoyortCOZUluxsVUjn+BM8Aps2EuchRMAlO0tBcH4Zn6c8X2dAw8cP9g39CrD7re5r799+f47vPXn03fNdRyvXfHsv0NKTicIWNyXNhBtCRYHQwQvrD7q49uPq4oxTKWKjiYwSuVY6IJ7bJjJ2fi0SQpTKAKKFrOLg8cy6oB9xh1UsGCUUjkzqmJ4jXP2W01vypBI4/aX2b3+EDP+98r0J+KM8etUr6+fZiBkYHts7usdMsu+0/Otvz2x7LxekxdetOstc245ap+5U+8fGHccR6N8faZT/ztCx+tABBHAoeVtlYGotXIIAwPp73889diYQ1WqqGgCo1QOjR5V8Zg4t1Wvp9r4sQkxhD1YKzc899LL/y1YUEqpnBg3btz3iagszs13812LO3LEsPdIpIsTARFvdu+Z+lTXBZb97T0KxiTTK87quPh/jyQeveDZxef1+9cnl424ZPHtxx1w/Dok4ohnh0tfeQzMrwsxHBkYhFmNIzAwEgBsYIK1351/8xHfjiM+pYqRJjBK5Uhl5bDdYe23RSRnS7uIGpeNMYONF3140QexiZZ0cK5/zKUpGAiZ1cmSsgOmzHj1whxfVClVAEGQ7hk1IonnNY2IIOLei2WwZqiqGPGGR9hJXLTPjROHcaNHf3/T49Z13/3dkLxVgRgYOBb2u6Yo3CElNUdw7aIrMf+lB6+5cvuXPr1whz8uvmr8CS89fVerZmdc5yEPhkLrPYTIttELS5T4hDAgk+juL3vtx62JSalipgmMUjlihH6DVq5p3hKOEhMxvjeTPX8ieYl9p0yfSVOmRR8lJWUns+/fIKDpxCa74trmxkIENt6k6TNmdp00adLzObuQUqqgSKRf3K9oBIplJuPrjK6qfJlJ9oCzG9IvARCErt+mx7Y76Mg1Bq7ekzA6Siwy8BHCg4Fjn2y3cgpH+ZnqU/0179+5y3MXv7Dk3N5TFl2y+/WLbjj0m++seKd7S2LrffGkuwnmOYAQcnZPhxAjoCSSrh4QgKV+7IIbDvlScqbU1kC7kCmVAxMmVPaHyL4CxDL78vkIAiKGBQA2d0ydNuOnX3XOC5Mm3df09wMOOGD72uq1tzPRERJGv5BjiYsA8lIgyGWvTJ1+dasHVEoVNbF2J6J4t+EVMlNjHG6zRlWOvI3EjRURyMbNBgQgCvYBcM3Gx+/cf8KyxfAXe5QZFMIHQDASLZtzRCDnkGlc8sUkKQL18ynsJ/VLq1D/yamdbth/wRJT8iZKu79a03f460N/eNu0r4uxpvved5QvnTKGPb97tk8ww8KRASDwiNrLije/B+CB7EZTqnhpAqNUDgT14V8EWa8E+JKmYZgNiPDu9OmzWtQd57nnnvsUwLcPnDBhz1pX84o4V9bamIgIIKoVJIdPmTppm9pFW6ltFRvqIS72OZgst6NvnsrKijuYcJqzm6/bIdBmZ0vElKwQmwFAYIT4wltJjUkQIxrTImpgQkREZDoauL2cq9vLVS/4fud3Ply75BePvmOTnSZn2vedUVN5wjt77Xvcx5teb8cLnnxh4fkDHk3ZmtOIiLN5lr+wLxcE7DJVC67Z/6gBlzz/aBbDKVW0NIFRKgeck1ES/TJr1TgbfhmJgD0fFvLX6dNfPSHb8Z6dNOkNAO2qRg7/iAmDsm3tbIyBFXp+2oyZB2Qbi1KqDXKyQ5xF90QE8ujfsQ24iQkTJhzDJKdFM89fFs3IyA6b/aLf/n0XrnUgYRKBNOP1/ItvXAlI4DFx1xQyE8L0yvFeevVn7f5v9vIlT134fm2i+7PYfpd3hpx534a28zU9Kx9MLXn2SCLTI459YXy2XbDmnbMfQs1zx6Ld+taNqFTx0BoYpWJWVVV1GjOb2GpOSADDcIR/tiZ52di0mbMGM/EcbmGBPxFFtTdsrtTkRaltjxWJtZiOiOCcrYtzzCZVY6q+FdTXPPRVycuGGIDS0aNHf2lWO13a7S0ANYxNlp01k4AQsI86KkEDpUAA+eQ6G+adEkgf2bl+7m3d5v7j35+c22PykokDHlh81bize+yyW6eQy5bHsUiPILBk4Elm2MjLDzmm1QMqVUQ0gVEqZgT3U9fY4SauEQGsmTZt5tExDorJ02cOBTAXwFfPFNHnm2MSEYiwprS0dP9Xpk7/VZyxKKWK37hxow7yjEnGOaa11o09Yp+ZcY4JAGPGVB2C0D3RnFlmIoLPPHjTz9d03WE+CdYyAJfF7RKLQ8rWIeXq4LsMBIAFwwlgBQhNykt75V2SCMckw+rj6bOPbpRnbryfXXpoHHkii4MIgYlKkus/Omk+ardr9aBKFQlNYJSKmw13i3M4JoYQ/zLOMZtMmTFrMIhrv2pJiAiiZRNsAKIXpsyY3eW5l15+IRexKKWKm3O8ofqlOcupmkfSN1xwQ3VMg21A1j0F27zSGnEOYZg+ZNPPP3zqH+dZNiuZspsNESJY9uHIRM8XUWNXysaNh8WCxCIEw4Lhk/WdSXQxJMk4FukJooYDIoAHO4yvPPjwGIZVqihoAqNUjMaNrjw83nbF0a+7vkN3yVkBpkn4x7LZfDmcIYDEOTBfMnXGrP1zFYNSqviJDb8T5waWjY1A5sc2YKPKihErrA2bXYNIAGwYdtr089cDNSEnV0PshmL9XGqqn4mrwsiRAYlAABBzomzdB4fGNLRSBacJjFIxsuK+F2eBq0AA59Y8ct99y2IbdBOvvDLtyVDkH8TmC59nJjhgUSpRMmzatBnX5ur6Sqm2IXQ2zrWxUXMSMkvjHLKqYsQqFtdNRNDc12InAibebGfHgEtnOBfji3oeEQSeBHAwyHAK1rkR79x+YlWh41IqDprAKBWjMJSOcY5HACiXO1A2mjHj1e+KuNVNFzLGgNk8PW3m7H6Tpkx5I9fXV0oVPyYeH+uA0ZKqNXENN6pi+CQS1yWb7opCGLK5z7PnfyjMAWLYN6sQLBmAgISth2O/W/mnb44rdExKxUHbKCsVI0Nut1h3eAMgkNyvXQBgmH8FyG1gD3D2zMnTZt6ej+vm03777bd7be26zob5B2JthsAHCMQ5J9bzvKEgNG5sRwhtKOLch8zMRBSKyBQ2fn1g3eMzZsx4sdCPpS0bO7ZqfwnsPtbZrmx4T7HSWSAOhA6e8bs3vXNORAiC9AcENszERDRHnFsGpic6lJeveurZF6d8zaVUjJw40zRPS1lOSgia6kAa62iM+doNHptjVOWIZyEYLyJZtK8XEDZ/Un1Jn09LGz6tZZJE7Nvf5EXji5o4eAzPNawaVuiIlIoDxbncRaltXdXIveeTYEBcP1UEgJjhd+yy06T//jfnm0WOqho5uV37jj989tlnP8r1tfJlZGXlpUbceIHsDaAzMQPORR16mg5qXCe+qc9vhAQAQYhBzAittYZ5BRHNEvAD06ZNeyQfj6Wtqqwc+RMC9hVBhYjr5TMlvrDEp/HPLX8Por833aASAAuqF8I0EbwwY8aruswxxyorRqTJ2QTwxQ0TW2LjBIbYwHiJiZOnTLmxNXGNHl35jITBQdlusElRMDB+8tzJU6bcsvHXpj316379nr92ksemf9tMYD5nCMg4ntzrlmU6C6PaPE1glIrRqIrhEmuRKyTqAGb4zqlTZ54W28BbsYMOOmjYunVrTwfkG0zUU0RATW2tm26a6fPW0C1/DRQQcTRWY4c261wDE08S0J0zZsx4PN5H1DaNHT366kyQGU2QcYbAIhIlKrTxRn/ZocbbZ6CpvTc1fX6uhbtr2ozZN7U2/mI2duzYg8Mwc4i1rp1h7CtCNkrsWv7cEiFh2Lt7yrRpV37dsaOqKkTCqLNXHAkMGw9Tps9s1dqsqqoRF0DkBtjWvO4KiA1gvNunTp1+5sZfoYXgxbf1mJqErbDxboGTd0yAdbLwk/2u3G/4N0+PvXmCUvmkS8iUihEzw8aYwACAOIETd+Jds/GzU4aheX1Bt0EVFSPOF5GTPaadjAic+3yG5Qv3dBu9o5/dGzj0xZkDG8IAKUAONkQHj6oYtpyZ739l2qsTs3wobdaokXvvR8SXARgvAAyihPEL71zH8J7ZxvNlG8/kEDCImW8cVTH8BhD/vWPn8pueeur511t/xcIbVTH8BALOEpE9mZnJOXgAxDXO1ALR8scWjssgWLG1X3fchAljj4j7DU/i1iUEVRV7n8NkbnCtSl4aF1mJQKwbuOnXpD/cIvBKIN7+BYVCgOlSM1fv/VSbp/+JlYpTTiY0Bcyc+vMZI188ZfrMsbm4Qls2pqriT87aH3kEclHXtqY3+jcim/wruxsn2vwip8/HdQ6AdBfggqrKERcQ8X1Tp804OauLtSGVI4dPZOA0ZtO/qVFVtOgusumeIdnWT2xKQF/4RgsAihJXIqZj165Zf+yoypEvJ1KlZ0yaNOmdWC6aR9/+xjcGLlu96hdO3GmGicU5iAhs43O8IXFpBSJC+1Ry/dcdZzPBQJFsf3I2c10AYWizXhY7duyoHxoyt9hYG6PJnpv7LHslSyXINFWTYKP/2Y1/0hdmlopZyB57mTBR6DiUai3tQqZUjJyzX3sj0BIbbheshRE3pqpi2PVxjt+Wja4c/ufKEXs7seGPRRw55xqXiDXup/CFD/rCR7Y2HUc2bEvX+A5u4zHOCWAtyIYnVY0ctnLMmDGnxvGYi83YypHnjh45bLkhXA9x/a21G54PbPQniXzhIy7RZoBfHpsAwFmIDQFnx2Xqqt8eVVVxb2wXzoNRFcP/tHzV8rkM91MWx2Ltl2YMv/z/vGUfrrGe6LlJk//0dfE463qajWe+WvkmAEFARFndSI8ePXpgpiF9R1zJizROX4nIl/aCAQDrd3o9FM4woheXEB4cGPGkkPnlBOnkTnvWFToOpVpLExil4iTxtQT94rDRkigmM3HPPfccnYtrtBWjKivurqwY4cTJyUxExbxFQ+MsRFcXpv9YUTFixuGHH96+0DHFYdy40SeNqhy5yom7WYDtNl6uV2w2LDFz7qTKypHr9tlnfFEnk+NHVZwwauRedSTyYwCId4bhi4haMmcge0mcDRGjFsqzWnraqFGjhrow8z4TYpxFIIAMjGeO2dxXg7KO7zPcGhBDjA+PHHzJQMAIyYcDw0gYa3KeC9G+MOH87YafrPUvqs3TBEapGDGbnGzb0jSmcyFKkuaVceNGjYr9IkVu/OiqX1SOHL5CxP2InKWWbFRXKE0xirUwIiOXL1v6/+3deZycVZU//s+596nuhLAvCsOuiAiISLpr6eokDcguoo7jjI477qOO6/j9fl1GHWccRweXGZlxQ/QnqIziMjCym6S71nQAFQVBHNwAWQKEbN313Ht+f1RV0km6U9VVt6q6ks/79YqG9FPnPl1L93Oee+8565YtG3lPr8+rHen08M/d1NTX4NxB9SVN/UC9A7zbd2rzpv/Mpoev7PX5zGYkk/xh7NzXRbHY1947nWwDJSLw3je1jMt770PPNojIhvkcf9555z1TffxzqE+0XQkC2FrNzkQDEJiL8/nZC3D8If2myS37Hvd/p2XRt63bcpd4t0FhMKhTGNQpWDh4sTstlVxIRACn8PGip5R7fS5EITCBIQrIe7eqo7/CtLpoqTI19Z1ODrOQvOp971sykklOOBf/q6g/BL4/N9OqesDHUVyJP53NZq7p9fnMVzKZ/NBIakiN9yd776HiMXvx6YVLaskkVF82klr6u16fz0zZ1PADcP4F3nu4Li1LqiVITU2riDGjIZNVEUEiSvx8Po95/LF1N4p3UYjkBah+/8ZaGCQ+nS+VLpvruLGxv9hwzEeKlx/+qd+97Hev+9rZ6w549sVbEgd+8gmz3/WxysNGY29q1fAWag5TK1TwyLqnPPvGXp8LUQjcxE8UkE0M/My5uP06sXOSatUhwRGZ5NLfF8prj+zQQAvCaHLpS72Yb6r6hOuTO/27IgDUOSj0gtF0cnyiD4oyvOhFsEoSggAAIABJREFUFxz/wB8e+F7C2pO3VnsS1DcO9CXvPUTkyNFMSgcHB15888rx7/fqXC688MITHn3owSLU77c1QWilHnILRARezEQzx6qGvHOgULFwTpsurJBOLr3TiDmy3SRKUN37Y4wBxADGfGU8P/6+Zh8/dPJFv8fJF/0ewFXvABJv/cxLRxb96ZenR9OPrbAyfaLVeIlRLFE7AKfVEQUeCoFRt7XwRHW5mXR41kYg6qtjuFg32v1/dOo7v72ygwMSdQ1nYIgCWrz3vld3YxxVhRE5YiS5dGU3xuuFTCr5QxX5jnoXZLnIQiFQ+DiGejc6kk52ZM9UKMuWLXvDH3//wM+M4GR18bYv7AYvh6rCxRVs2bz56tHkaRf24hzOP/+s9LpHH75TVfebeWHeyb0U2xWyqF48Jxo9ZmxZ5nnWmCXhzkLgFdjvoIPubObo0fTQbRY4IUQOpagtHTMGKvKliXzpDa3G+jxQOeFdV6065p/v+MgRl/zx9E1Hn/uixwaPee3GaL9vxiq/jtz05oTfggHE8BLBSQIqBh4WThLwYjq7b6YW25kEBO7R6KnP+a/ODUbUXWxkSRTYSGr4Xqh/Wqc/WwrAGgMPXF0oTf55Rwfrskw69SuoP17U7U65y07EGHjIo8XSmoN7fS47ymbT31DnX6m+Wv1KtiuMvPsQEcAYxCIvLhfKXZ2JSSWH7jeqh3UzI6wnLwKFWIvpOD57cvK2XS4rymaTGcQ+7wP1uBIAXsyWYnlycaNjM+mhLxrFG0ONDQDWWngxX8kXWk9eGvnpDz5x/L63XTvstzyUXFR54iyr8dEispcVwItFrKaWSjp08nNlAIif3rRh8aGfPvaf7vr7jg1E1GWcgSEKzKj+qBvjCFCrTCYvHk0Nfa8bY3baihXZ89Op5CPi3fHwu3fyAlT7xhj1B2VTwwtqJmY0PXw9nHul1pZD1i95d0f1IgsJ1auz2fRF3Ro3lRy636K7ycuOBILBwYHGL6yXgDdIqt+vsaZh88zR1NClFvJGX+vtFIKxESpev9zJ5AUAnvPC/3v3sR+duOLpn7z7b6df+R/nbXjq0BsrAwd/brMmis77Bwb85soAKoBEHftkqURQ1cp0tO/lTF5od8MZGKIOWJYe1riD5U9nEgDGWjgxHykUSh/tyqAdkMkkz1WvP4YqJGS51j5Q3YsQ3VwslZ7X63PJpIYfMtBDZi7XCde+cOGqvgbyRLE0uX+nx8pkkj8S1Qu1Sz8jZpo5AwMRVyivbbgXNptJXaoufkuI6wUBgGr55psK5bVnzXXcimXZD/jK1Medc/AQyIw2ki2PLQIbJUrj+WK6rUBt+Cqw5NQvvO6ZB94/uWJwyyNnG516DmAOFGMGBfU+VvX5zurf6k0yt2+iuWtWFLE3G2K7+Duf+OB977h0P7D3C+1WmMAQdUAmuTQvQKabny9jDKB4Q648+ZWuDRpIKps628bueg24TKTfSJQAVL+YL5bf3KtzyCSXPizAwXvq74VaWd3HcuW1B3ZqjGw6/Roj/mtxHDc+uIMEChi7JV9qvIxrWXq44LxPh3pf1Pag/DBXXPPC2b6eTQ+dD6/XhuzxJMbAi7mrWCw/K1jQAP73q69P+t/ecerAlgfPNm7qVKuVIwx0UMRAxcBpdfO/l20LZupFAWTrqk6FKKDGwlQbcqICe7cfPODLR/3TLz/dq++NqJO4hIyoAxYPJt7e7SU33nuIkS8vSyc7ujQitFQqdYF1fo9OXgDAOweIvGnZyMisF3WdlkkufWhPTl6A6nIyiByQGX7u9Z0aI/bxFzrZnLJZ1UJn2lQPGOd90FkpEQG8Wz3b18bGlr3Qw4RNXkQALLzkBQCOvfgr5ad/rPilI//lvpdMn/++8+MDTnqrJPb7SgX21orXR43GsOKrs0eiiBAjUgcLhUgtGRQLNRG8V+9c/IDIwFXxcWe9kckL7c44A0PUIZlUckJ9nO324htjLbzq6wulya92eeh5y2azZ/t4+vp+7e0SnAhUzMZiac3e3Rw2nRyqLhvj7wMA1dlMr+Y1hXL56yHjjmSSP4T3L1gIyboRAGJuzpUmGy5bHBle+qBCnxpsbCNIJBIfWjlR/PjMfz/33DNOevKJjXe4uBLs9o+IgRf5VbG05oRAIbviI8C+f/Xpi5bt/fhvznZbnjxmQDefKOoHAd3fwywCBAaVaRHzhKo8rDB/iBcdsnbTkcnrn/mWy/K9Pn+iTmMCQ9Qhp5xySnqfvRcX3PR0R7tpz8ZaC7H2jeO54pe7OvA8pFKpC6z4a3qxD2AhE2PgVf6nWF5zQTfGG0kNPwT1TF52YnxhzaQNFe2ss16638b1v3l8ISQvQDWBUTFX5EuTr2h07LKRlMaVSrixjUGuNLnTD8VUcuhhq/7gUO9EEYETc1eptGbBzbzM133Fy4955Lby4L7rf3uCTD95ABTqEns9uWW/o35z3wvf/fsX/tkJj/b6HIm6iQkMUQdl08lvQP0r1fuu1hoSKIyNsGhw8PU3rZpYcDMxL73oouP+8Kf771Hn0asqTDOTyq1/1xm95Ws/G+v/LTP+q9Ob2o2NYMUvXV2YvLWT44ykhiegPgv1Hf2e6pG3LtkXqXeB3/qv1Zeg9iyrYuszX13WBfVabTy4dSuzdvacxUAie3MuH6awwsjw0qvF4EXOhzvrlpogKmDgIcbAGPue8UL5kl0d/oaXv/ypv7z37gdDljGOogjjhfJ2Jz+SHn4E3h8U7JpEDBR6V7G8tu+TFyLaWcPqI0TUulyx/KrM8GkvALBft8f2zmHz1NRXzjzzzDtvvvnmBbWk4LcP/DFnu1xpTERgqtWPKl7xgIf8yiasV9XrvPMJGAPvfWytGY0r8b7WRicY9UcIaqV26xfcXbjpoz5GLPa/ARzeqTFGRtLXCjSrXXgd6s9Y7fmHV8CIPCmQAsQMiJU1HuYhdSoqXo1NHCIuTnrvpsXYFao6aKIIXj3Ea1dSXlUPdTjz5JNPfvodd9xxb9sBBRd4r/XNJwHOsL2GlwqBJAYavvh3/fbXf93yIHPwzv9u5n8vSyd/p84dFHIMsTY+8shDe7KfjIg6jwkMUYcZO/Am1fjb3V06Ur1QVO+w4cnHbhg6a+jwyRsnn+jiCcwpO5L+hQBPqXfE7ugssLHVJVne/8p7/wMRvSFXWntLg0d9pv6X973vVUtKhXteMl2pvAxizhBoAt244FfAGPmzZHLpW8vltZeGjj8ykn4PvD+/elddau+WcLZ7XcUAxkBVNzvo9weixE8OfMZTv/uDy3/weLPxLrjggqMff3zdC+DkhWrNGUY9Qs4IzEVUsfeSxd8GMNxOnEwm8y4jMrBQVjx4CIyxWL164rMNj431gODji2wtwZZJLr1RgCND/SyolsM2zns856qrfvirtgMS0YLEJWREXZBNDn8Doq90znVpP4wBULvAqy7T2XzkIYc97aprr32wC4PPaXh46XsTRj7V6WTOGAOncB5y1d577/Ovt9xyy9oQcZdl0++oxO69BjhSu1B4QIxZly9NBr0zfcEFZz3r0YfX3SEK08nle9XqSAIVWSvWfiKXKwZrtjqSHPoooG8HcACAjiTBW/tv2AgmGjh5YmLiF63GSqeTOePiEUV12Vc7MyczqZhawQG/qVZUt4nihwKFgTGyVz5faFiJdCSTvBHOPS9oCeUoyuXypdFsJnUNfFydmQoS3EBFKl4rJ5fLt98dJigRLURMYIi6ZCS19FdQHN+dz1x9r4ACUl9zbzYdMZx+6lVf+MKGLpzATlKjo89J+MrtrlLZri1bSPWLZkA/kiut7VhTz2w28w9ueurdRmSvTr6e1hhIlHjPeK6wy30K85FKnXavUTytU7lLPUE3Rlbvvf/eF1933cpfd2YkYHlm+NJK7N7SfovDndVnpVQMvNibSqXynE0XG0klh58w6vatxguTwBhjEHtMwuCTpdLkd9sOOIdMaugaUb0gZAIDYz5jogH1lel3i4/hA+wKEgBexCUG9zplfHz8l+2fKREtZExgiLrkVW95y1PuuW3tH+Fd1I19FDPVum5Dgc1ur32fVl65suszMdnk0vVedZ9OxTdRAk7128Vi+WWdGmNH6WRy0opf2pnlTLVe3MbeViytOS1ExGw6eSUUL/M+fBNFFVOroIbbgYE3lEoTk8EHmcWKFdmzp7dMf1/U79WJYgT1pPjgQw/f94c//OGT8338WacvP3Pzpk03uYDvERMl4IFLC4XS3wQLOodManijeLdXyMpgqviZCE4Jt2Ff4CAVszg6qbiqeE+YoES0kLGRJVGXfOM//uOhKDE45nxvmp5UrxVksWzeeK8ceWTD7tshZZNLL4NIR5IXMQZizDqn7vRuJi8AUCyXh+DxeWODVdvdjjECI/LcM8888+h2Y5155tiFEHmZagfefiKwUQQx5sOlUvm53UpeAGDVqtwNhdKaJYA8BAn/K61+kb3uoQdaagq4ZcvU6b5WBCIEYyyMsd/oRvICAKo+3lo9Lkg8hUBPCZn0e4guXpx4DpMXoj0HExiiLhofH8/ZxMCHJUr05gRUId7tlTn8sEcvuGDs0G4MOTY2drqKvDb0LIWqwhgDiLk5X5o8qFicXBl0gCbl1kz+rdjoEhs4iREIvK9e+G7Y8OQH2o236ckNn9e4Eny/iBgDFfM4xB6Xzxf/IWjweciXJ5+qYh7sxB4zVUXFuXNbeaz3bghAkL1vIgax6qrxXP7VbQdrwtjY2MkiZt/QcRXVJXAhmCiBJYsXv3PVqsKdQQISUV9gAkPUZYVC6Z8U8pNt+zU6b+ayGgMALl68ft2mez/y3vce3Omxpzet/3wnlsxFUQRj7VfzxXKQPh3tmMgV3qOQz9lAF2VVtT0Y1fLN57UTKZscer81ckx1Ei7ga2EM1Ni7i6U1B+RyufZLDbepUFpzGBAmWZipmizbo9LLlqXm+1ivCJIAqAjUGCjMX4WI14wtW7Ys6dTPqCAVx6IExNr33bJq/PMBTomI+ggTGKIeKBSKZ4ixa7q9A626db66ud+7eK8bJ1Ze18nxli8ffaeIObkTd/0HBxd9fDxfen3QwG3IFcvvVGO+Z4yBoP0lN1uTTlUY6BEXnXfeM1uPhY86F3bpWG3p3p2FQqnl8+qEaGDgFVJLJINeeqtH5KbfPN+HGYMg7/9a3vl4uVzu2v61QSvPr5cNX2i7Za21gNj3TkzkW1raR0T9jQkMUY/8Y7GcgjHrujULA9QvigWKWs8Fr0tTyaEgJYZnMz019cHgyYsIYjV/fvOq8Q8FDRxArlB+iUL/IBLugk+gEPV4ZN1DLd15Tw0v/WcRDG79Bw2wlMkYiE2U84XyiW0HC2z1ROEKp3JzrRpduB433kNdnJzvw9SHKVxR/TGhvw0Rq1lxXDmwPnsaujhCO2rLNd+Xz+f/tdfnQkS9wQSGqEfGAC0U1xzkFet6cwYCr4rIyGnpVPLHoaNnMqn3GeCgkAmMsRFsYuBL5XL56mBBA3tiwxOnw9igy5hUPQBZ1spjbRS9P+j+IxGomDtz+cK8l1N1y2c/9/kLjbVbE/YgBADkGfN5yPOf97ynhRm8tixOcX2oeM3wqsd0c7xmGCPwkPdOFNdw5oVoD8YEhqjHDnrKoSeZKNH1O5z1tMI7Bwt/bjq59F+Cxvf+/fAu2B1wYwycc18dzxXeFCRgh/ziF7/+Naz9ntYSmBDfvyqgqvMupTySHPqMhlw6Vt2w/3ChuPBmXmZKp9ObK7H7T5Fg8y/VlkoiidHR0aaXzK3f/EQy8AzropDBGlHI0xbS4jEjArH2Y/limTMvRHs4JjBEPXbttdc+qGIvNLY3H0cBoN7B2uh9mWXLgmyIX748+wojclCoi59q7wi9q7hm7YLZ87IruVzxJRK6pK/IARdccME8yyn7NwlCzr4Y7JUYbLmhYzfts98Bnwn5GigU3ns4F7+l+QeZoJX+BiLb1RkYQJcsoPwFEKlM5Mt/3+vTIKLeYwJDtADk8/lr1MufSxQh8Nbjhqpb+gU+rgCV6Rsvvvjittfsu6mpd8G72g6E9r4fgULVuyX7LT6z3fPqJhVzY7V5aJjX04hg/SP3L2n2+NHU0ncaMYvbXcFX3zVljcBG0adumZj4aXsRu+Omm2662wO3hpsBEQgAo+6AZh8RO82Ea9ZogEh+HyZYcxKJxJELKX9R1UQmk/xJr8+DiHqPCQzRAlEol6+2UXQhejQTA1XAO/zijp8W2wlz9ooVx4rIaWH2XQiMMUgMDHzxxhsn7g8QsGtEzMdDllVW76F2UfNVsMS8McRroKj2H3FefzUxkf+7tgN2kVh7Zbj0BfUafqc2+xidWTyhTc67LatWFX4eKl4zvAvbu6ltqhDI2OjoyDt7fSpE1FtMYIgWkPHx/DUQ+XMYi070TtklkWqpWJETs9lMy8s0Nk5Nvd97H6ZxHxRe5A+rc93pOh5SPp9f7bx/OGRM5+JK0wcrntXOWDN3j6gIluy35MXtxOuFfL74r6E+RVr7H/UaN/8gTYWagRHBpiCBmpTNZt4duoJguxSAuhgujj/T63Mhot5iAkO0wBQK5auttW9DNNDVcesXrM45aGX6I63Gqbj4vGB7X4wgWrzXe4ME6wEjsjbUEqZqE0qxzRybyaS+GaT3SHXnOjzMdTfdNP7LtgP2gEB+HSaZrjZftFHUdDEFrzodZGwRGJg/th1oHuK4smkBVU7eRhXiHTLJpX35fiSiMJjAEC1AE/niFxIDA5caG9UbQHScQra7674sk7xxvjHGstmTI2uOCnXjViEPr/7J6u+EidZ9URStDBnPACuaOU5Uz1HVttLIegcVYy1+u+6xV7URqqcUGqbPkaCazPnmqrq94hWv2Dey9qhgsxjqfxMmUHOsyAXqF9YMTJ2qwhjzrGQy+Y+9Phci6g0mMEQL1OrV43+TWLToU2Kjro1Z33CuqvCqzzvttMy8liFNT295ozR5gdeIsRYVbxdcs8r5UGt/LQH3wYg23pNwzvLlR4p3B7eXvtTGEwOvUnzgnnuCLoXrpshGE0FmwXR+5TW++c1vrm/m9WqGiADWbA4SrFnOb3dDI2BB6iC8cxgw+v9GR9On9/pciKj7mMAQLWArV67+u0SU+Go3k5g69Q4DifiyeT3ImgtC3XH26jetWVP6YpBgPbJ6de57IZtINvPMbo63vD3UpaYxAh9Pfz5QuJ4wRh7pxbjLM6m3hZt9URiPec+ItkOMpLs5Xiu894gr/ge9Pg8i6j4mMEQL3KrxidfbROJLEnVvORlQrSFgBOlMJpNt/jEapPGdiMCI+VHbgRaAoI0Mm7ggjmM3Emo47/yW0uRt3woVrxdW5orf7sVm9Ni5g4MFE8GiJXs1XzwgAK+aWGib+HekqjDq9h1JDV3X63Mhou5iAkPUB8bHc28yYr8ipqk93MGI9zC+0tQm+pGRkVdVL9bDbFqO48rX2g60m5EmsiER8+wgG/hFYK1Z2XagBSBoEtnsmEZODVNIoXruN96y6httB2vSuWNjx0CxX+jnzRrzWMh4imrlRCM4Z3k2866QsYloYWMCQ9QnJvKFNyjwJdvFPjGqHl71hU0d6+JTRBWtXrTpjIslL4LS5O03tBRoN+bFbGx0jIjuG2Y0ARKDXV221CkKeVCkvX0c9T1F0mSC7lWf0k4p9GrVOYWKhwbcR9WMJzZufIq1puXP8mwUMjVRmjwQUi0WEiI3EigUAuc8KpXpTy9btqzpJqNE1N+YwBD1kUKx/CYv8hVjuzMTU21iKBgdHW3cQFE0qdr+hUnt4btRidQwd7EFQOxdblfHjKaTHwx10Wmtxfh47pIgwXrMQ+9r91Woz0Yo9NEmH/FUoI1Xf8YDvfM/azVMKwYWJYLMHs0kxggAGGv+UcQEb3MlgHGVqXzYqES0UDGBIeoz+cKaNzjIl8RGQe+QzkUVcG76/EbHiVSXzLR9RiIQYLLdMAtHmNdIAQxEicQuDxI5INRbIo7jx8NE6j1Rbft3nSpQXbGk9zX5kKcB22ZuWiUi1XJwXVSpxKeE/NkiIlDvJwAgV1jzQQ8JnpDVzveETCbV10UniKg5TGCI+lCxWH4TjPml7fBMzNZ7zl4zjY71Xhdve0x7Y1ob7TYXz+E6sQtE5Pe7OsZ51/B1msdYXW2c2B8EAHadRM5QX3TWDlVFFNk72goyTyI4NHRMY8xg/e8HHXnoi1CrrBiyPLO6GBb69hUrsmcHC0pECxITGKI+lc8XT1LFXZ3coFzdJKswxhz8vOddcPxcx61YkT3DiERbH9MGEYH4ytfbCrJArFgx+nITaP+CiCD2Uz/e5UGqU0EGA2CM/DpUrJ4LMIFRL09hIlNodGw2m/7L6sey/YtzYwycdw+1HWgevPMnhown1VnVifp/X/O9a35jjPliqM/GNgofx5jeMn1l4MBEtMAwgSHqY/ny5LMU4jqVwtQ31ot32Lhx3ZzTPfGWqcWm1rRPW0yoRGu93wWADCxqKcgCE2/edGSoxf5eFceecsIuG0oakUyYyleAU/1t24EWCI9qYq2Qlu/4qyogAudlU6Njjaox9TVnLRNABVADINrl3qfgAjXgBOob7QGYaLvnLZcvvtl7vTNEcrltLABQGPUHZdPJlcECE9GCwwSGqM8NDibONQ22RoQQReYv5vqaWJPywZr2hQmzIIgZC9jM8PErv3jlLpsyeu+DdTwVaX/fyMKhbfdQERGoKhKJ6OcNR1O9KNzSQcAMmruDBGtSlEg8K9wemGrdtsTg4C07fuVX6x4/1wb92VWdJ/OqUNEVmczQxQGDE9ECshv9giLaM60cL9zkFH8nNti1604UQFypHDjX172Xo4INJkAi6tz30k3q9bkhZmBqe1ImGh8XLv3z4W7C95wRMxKqN45z2nAJmbpwO+C9V+y/ZP8HQ8VrbsxwL75CIcZg5cqVO71/19177+9i5z8ngZaS6Yz5NXUOBvKVww477JAgwYloQWECQ7QbKBRKn/LQtZ3dD7Ori2N9eqhxBEDstvT9PMxZZ501ZCL71BDfiAiQsImGpaVDvv4qAdcR7QaqC6G0ks/n72p4rNHRUEsHBfrYtdde27UEZmxs+dtCJjACwDk3Z/+iQrH8Tqj+JtiAtcsaVYV6j6OPOvIn4WIT0ULBBIZoN3HYYUe8XE3nZi52+cPCuyPq9z6l1UaWtT0KXgER0/d7YDZufPIt7VwIblcMwVgM7rNvw43JoZb9KIBIojmLNvQd77b+tdUiEyICD3miqeE8nG7tG9P6njCIwIl5sqUALZresnnahLwPIgJAdrl3a+/993uVBKmoqNhW+02gXmFFT1o2kv5MgOBEtIAwgSHaTXz/+9+/WyE/CdLiekeqaHApvpeqtlcSVepDKSqKv2w90MKg3v+1+kAb6p179Prrr/9p+2fVPK/+yG6O1ynLs+m/MiE+E9WurhuaOdQYObrdZLL6WRIocHtbgeZJgbOD7kNTQOyuk7AbbrglByOXhWl3s/3Je+fgvXvn0qVLlwUITkQLBBMYot2ItfhikIu1WWPbOX9eWGufEnIs7+LOrYXrgpGR9HtFdbDdigQKACKw1na1w3jt4jvoa9orcRwHeTOJMYDXW5s6tu1uSPU4QGRtd5fyqQ6ErKRR+3G0ttFx+Xz5YjXmgU7cgFHvMRjJd4MHJqKeYQJDtBvJ5YrfUcA1PnKeRGCM/GquLwerQAYAqlBFNlzA7hPv3hOqFK0xAmPM95saN+DFnxGzW2x+NmKfH+L9qd7DJqLBRsdlMsm/DrGUr5q8Al79tW0Hmw8xJ4fegCZoXHoaAAYXDbzYRImWS7HPRVUB1aeMpIb/J2hgIuoZJjBEAS0fHX31yEj68l6egyj+GOzXf+1KRkTgvaye7ZBl2cyHt12wtT+yAohsdFLbgXpkeWb4bVA9NEw/FoH3+uR4rvi1Zo5XlRAbCWqxFOnh4feGitcr6v1AiDhiDHS68r2GB3o5brvHtTibUZ/FiaLEXi0FaJXqAWG3wBhAXVNJ2MqVE8XY+cuNCfY23o4RPW9ZNvmOjgQnoq5iAkMUwCnDw88cTQ/l4ulNl0s89de9PBeF3hdqGYaBh0LgINhnn31mXf+v8fRmUUWbO2C22/yvLsbY6MjH2gjXM7H3H9EAVZzqTT29STQ1+wIAHjoZ6ua1qocafXGYaL3joUGKESgAs2hwcaPjxOAZGmAJVnUHjGB8PPf5toPNg6jbO+SMqoqBSSxuOgkrlcqv9aoPS8vlD+Y4D1U451GpuEtk//0PCBiaiHqACQxRG84555znZEdSK/eN5C7n/Ei1+baNstnUB3p3Vvr7kNFEAKg+ft111903+9fNC4IuIUO1D8XU1NQLggbtglRq6FJADgr1bBhjcPDBB3+06eNFKiFmwYBqQmmBTJBgvST4s1A9YMbH85c2Os6rHhtqC4mZe9tZR6RGU0NiwjaU8t7F4+Pj89t/4vRCMbYjPW1FxKZOeMbKDoQmoi5iAkPUouxI8qtPPv7o7RrHK1y8rdG3V4WL44t6dV5G7Gi4Lto1gtvm+lLs/HQn6gYYa54zNnbucY2PXBhWZLPnW5G3hJh9AWr7WdRPXnPNNU33yDBiS0EGr1NFKjn0paAxu0xV2y7JrarN7y9S7NvueED19Y/jyt0hYjUrAXMUNOzMB2T+yxqLk5MlL+ZrUltKFrA/K+AVojhlJJ26JFxQIuo2JjBE8zSazVw2klyqGrvXwTvM3Kyt1V4RiMQMDw0Nnd2L83MaZs1/XbULvJmzeZ8xcmrofAmobpqemlrX8I73QjEdT109s99Iu4wIIpv45rwepPEDoTby1xo3woq8PkjAHnjusmWHRNa2vVzIiECdv6+5o/XkEEvIAEBEKkECNcl7PSPkZ1lEYCB3tPLYQrH8Og95oAM1yQDv4L1719jY2OnBwxNRVzCBIWpSNjX8gfTw0icnfOMBAAAdOElEQVQ1rrxWVWulZne4N6iAqIf3HgORfKrb53jW2NhQZMxhoeJVW18IEolozk243vu9Q1a/2jp2dQnTWWOjqaHgwQNLD512m6gOhrr4ExHE3j24Kl/83HweN1Fa+ykxoX6sS7WZvKosG0ldFShoVx2yePH+QWbERKDA+qYOVR+oBrjCQ+4JEqpJcRxXqtMv4T7PDtpyI86BwUUvMVF1RVvonzAGiqlNG74TOCwRdQkTGKIG0un0ezPJoScB/3EruvfM7ur1ns919Y2ntbKdp2Sz2a7Owmzc1F73950JvPcbVq/OzZrAjI2NpY0xA8GXrNV457BlunJ1R4IHMpoZ/lkUmVNDPgfVpDHx6VYe652/P2RCqerhnfuLsbHsycGCBnbSSZkDZ/v3J594/HWhepqIkV82OuaM0dGXGpEIQSrQAcbYoPvZGrFGzqm+jwO+l42dbPWxq1evzjv1X+vEfhjvPYzgkOUjqf8OHJqIuoAJDNEcsqnUspFM6lED/ymo39t7nd91iSp8PPXvHTvBWclrfKD+I0B1A38isnM275uamupoNR9VRWTMkSPp4a92cpxWjWRSt6vXZzsXMGkUgRfzh/F8+V9bebiqL4Q7mSrvPaY3bZkIHTeEbDb92n33cTfM9jUTWRcirxQBBPpgo+O2TE9vAoKlTIisfThIqCZ5r1Mh49XS6HXtxCgUJ1/ngHWhG1yKCJz38N4/f2TZyOuCBieijmMCQ7SDsbFlL8qkh38K8avh4gPVbdugP7/8RWFFnjGSWvrJ8Ge5s2xqqAx4E3KxhYgBjPzX3F/Xkzoz97KNcx4GeN3ykeRHOjzUvIykkz+Fd88JO+MFwFgYm7i41YcnosTKDtRUAID9RpJLc50J3Zozlmc/Z1UvE8isMxXqfJgZUAWsiX7d8Dgrf66BNsGLEcRTlWsChGqasfbUELNHWwmweGDRmrbDDCx+cRS2OFo1LgDnHHRq6vMvOPvsY4MPQEQdwwSGqEZElmRHMj+dmpq+Gt6f4l11g7600eGkGgN/d9by5RcEPt3tLEsn32+A4aAXHwBUdePqidLcs0heTw495mycc1DF3y/LZJ7X8cEaGD3rrD9Lp4bvg3enIHTyIgJV5HO53KwzCs1YXSj9eydeEVWFERnJpoYWRBKTyWQunZqefoeLKzBwd852jFMXZBO8GAMRu6rRcd77kGv3sPdee83ae6lfiBjcsmrV/7QbpzA+vsqrv7YTe+0AwABLHnliXVeTRSJqDxMY2uO9/OUvP3gkufR/RpKnbdB4+hTEFdQvynVr+tLaL876heT6zRub6qTeimzqtHep+n+OvQ/W+q1eNjaGvXyXx/lKw8Z+ocRxDO8rN64YSf9tt8bc0ehI8m/9E4/9znh3tGqoWlN1CmstiqVytt1ITqKbtAMlaH21ytrISDrZsyTmla985WHZ1NAvrJ9+izoHiIHYaNbN7gmRkVb3JmntYlkAVBSwixY1XM4VCZKhFpA5yOM3rFrVtU38Y2PL32xqVfT8Arw0yBXXPN+LeaITKYyv/rw7MZtJzatoBhH1zsL7KUXUZb+59577AZynvl5ZLKzqnWsckkkNPxQ69oqR1NcBc4kLOBOgqjDGwFiD/fc/Zpf7MMTYYBdszfDew3n32Ux66ItdG7QmNTx0nXr9rKq3HWmwZyxi5/8hRKwoiv5TTGfuVleXzOlIKpX8VUcG2IVUKvXxu391529U9UTvFQqFEYFN+B/Pdrz3PkQHSwC67uabb/5To0O994tDfBwEgEC7OvsSx5Vts1WB3jq+6dLTzRFj3ipR+KVkAOCdh1d9xxlnnLGiIwMQUVBMYGiPJ5AyUO970SGqEPWHpJNDD61YkT2/3XDDy5cfmU0N3ePiyqtCNU6s27pMQ3H9DTdc9b+7Ola978zVxC4452AUbxxJDd+TTJ56aqfHG0kPfSibGlJrcI53rlPdweHF3FEsT344RLxcLvc977VWjSzgqqb6/zsHq/74dHJoakU28/+CDTCHFaOjL08PL70zEv2AUb+oPvslEHhVHH74M3bafD42OnqWBPjmq3taTFOb20XkmCDvj2rfmTmbx3aCd/700DdwxMh0yHiFQunK2Ou1MBbhCytX+8Ns3LD+W4EDE1EHMIGhPZ5Ys6p6mdehrc81qgoDPWRq89S1y5aNfKXVOKOp5NcSU5t+p6rHee3M/IcIMO0r72h0nI2iI7qwBWYn3ntA/XEDJnHbaHr4B+eee+5pocdIJ5MfyySXPiaKj3nvUW9S2Yl3iUK1WCw/O2RMK+Y71QQm5As047tXB6N+II4r/5hJDf92dHTkVQEHAgCMjmYuTKWGb40rW64wghN23NJSbVODB6644orHdnqwr+wXonKViACipaaODdaDB7C2Q1MNc1DoPiHjGWOg0GLImABQKq15vgLrtRP7YVSRMHJYanjpgi7dTkRMYIiQzxc/gOAXerOr9YdBPD19cTo59Fg2nfzi+eef8fRGjxtbnn1FJjl0S3r4tIpX9xqtlv+El/AfYREBjL2pXL797kbHhp79mQ9VhXMO3vuL1q97eO1IamjVaGb4be3EXJ5JvX0kNZTLpJJqRD8E1f2d80H3kezIWIvBwYE3hY6bL5beDcB1IuWqPx8KQL0C3h3l4/jrmeTS/81kUh9/8bnnttxM9cyx0dNHksP/NpIcWu/j+EdG/XO3NY7dfk+PVBtMzjo7Mh22wETDQGOjmQtDfR6qjUz9D4IEa5J6f9TW8VvdNzTjveYVMBJ15IMzkBh8q42ijiz5dc7BGnnR6Ojo3wQPTkTBdH35B9HCpLeImDM61ZBxJoECXiHA/ur1jU88uv6N2dTQ417lNhWxRgQeClX1Fv447/Vwa4wYKDyw7UJOBAjY86V6boCH6LHHPL1hX4SRkfR7TeDxW7H1+VBdrirLM6mhz3lF0YhMmCh6Ipcr/NNsjxs944yT4k0bXmxFjo+9PtOqGzbGVAs4aLz1ilVk+wuzgGcOsQk44Eu58eKXOzAAosh+Io7xwdCJ5szno770Ul0MAY5R1Q/c/9ijH0glh+8SY0qA/nrRor1uX7ly5axVnrLZ9DuMmGN9Zeo07/U0a+3eIlqdZXP1MXYet86LmWN2RI+vLjPTtl4/EYGqub7RcZVK/NxQia5CYRKL9woSrOkx5WitfZ5bfs5m3gcSgRP9UbATnGH1xMQVyeTwqxPWnhW8jDmqN2Z8PPXZsZf+zddXXvWFvq4ER7S7YgJDBCB28slEZM7AjJ4v3VL7Bbw/RE6X6gQNDOrLY6qXEZ34JT0btRai+Oi3vvWthh3AVVV6sHpsTvXnC6rGiowAGNHKNLLp4X8EZuztqR/vPSyqMwgW22Z0usZE8IpVxVI5+OxL3apc6UOZ1PDrARzaqTFmUgBwMQQCIzgB3p8AEVQ2b8Boehg7Lumqvl6A08rWynfzfQ0iawZnPxk9OsjONlUMLkokGh3mvV8Sqm6CiCCXn/hsmGhNjgksCjkPLSKITOPnrVXl8pqz08mhzQIs6sgAqtHU78o/ATDckfhE1BYuISMCUJqcvME5f1+n+gzMZbsZn9ryMtSXy3R5c4mKgULuKpTWfLSpB3gd6mIBsnlRVaj3UFV45+Cdg4vj7f742jK8mcuTukYMYMyjxVJ5rNNDLV40+Lcm4N6M5ujW57W+3NHN9ho4B+/d1ud/vq9DrZv6D2c9A5GjgQAL6ESwevXE3L2Q6ocZkw1RCKSayHX39cpms6caY4KWRPfe+9W53HdCxtyRCi42tQaXoZd5qvcwqkPLMqlPBw1MREEwgSGqsYnoS91OYHakItv96SZrDYrF8rOafoDIwd0sodwshez0PDbzp1uqm8LxeKFQOrgb492yauIqVb3RdKis8o62dU7a1gC24fPfRpph7ezfmPc6UM2H2vu+m03+VLAoSAllEXjv1rcfqXmJhBwSuq+RdCELK5Umr1T115nAn9/6zwP1Dt7H71mxYkUm6ABE1DYmMEQ1E/niJwDt/hqyGUR1uz/dEkURrOK183mMgT6rFxXIGhHoTs9jM3+6cm4icJDHCqXJA7oyYE2+vPZsL3ZziKpcjegOKQyw8/t6pz8tXjqrKr6eK165479fdNFF+wxYc0j1fFpj1AMimPZ6fzPHi9fntjrWzFdFjcADf2gxVEvc9PQLxG9butfunq9a9buGRUBCyJcmz/PQ9SEr7tV/HigEqkBlywZWJSNaYJjAEM1gxH7QWtvr0+gqMQKn+p+ri+XL5/M47/2BHTql3ZKIQMU8XipP9uR5U/izvUK7kcR0i4jguFmqkEVxfGDAwgWPNneYtr2BSiCAAqr623ZjzUdl2m0OHVOAR0LHnMtgYvCD0pHeMPV9iHJoOpW6InhwImoZExiiGcaL5U/Git+JyE6bvndL1sDYxI354pq3zOdh55133ikiMtjh1jl9b7uKccY+Viit6erMy0zF4uSEtfbjMLZ6n3ohTp/NgwBQr/fN9rWH1j30+nb3NWltjMjYhxsdO3bm2IUi0vaG9Xp+KZB72401H5G1ZwVvYmntQ0ED7sLKXOHfFGZ1p5Jz9R7G6MuXjYw0rM5IRN3BBIZoB7HT14u13d/Y3WXVvRhy50S+ePZ8H7t+/bpDq1eQu/dz1C4RgbUW3kS354vlns9Y5YvlD9vIftcau1NFsL5TvdKfdXZEVKbafWdKbQyn/ueNjt24aWMc8oZHFNkngwVrglfvQ56/iMBX4tuDBWxCrlhaAUilI/0tAWgcoxJvaVjMgYi6gwkM0Q4mJydvVO+v6n7lpu5QSLVjuDF3FgprTmwlhlE5TrRT/VF2H2IsVGRlsVh6bq/PpW5iovAXgJSrS276mzHmT7P9uwPOaz96bf+OyB8bHZkQe0E7pc63JluqMMYCZqC7ey4Ep4W4YbNt7wgQJUzDUuyhJRLmrWI60x1CABjI4kx6+KcdGYCI5mX3vEIjalO+NPmXCjy+O16ei7VQMXfmi60lLwCgLh7WBdDEciGS2h+bSAA28bFcoXx6r89pR7lSOaVGyv2cpEu14eusF5Net+1HabXCnNbHsIkbGh7r/BKg9R0Y9XOsNs0EBgdNVz9coX7ObS3GYCzG82suCxS2aatz5a94yO2dWf5bLW1vVE/JZFIf6MAARDQP/fvbi6jD7MD000y0e/V6FRvBef1ioVhuOXkBAM/kZU5iDFTkQReZVD6f//ten89cCoVySqLEDcaYPl0KqBgYGJjrxE8MMqMAYJ9Fixr+nlTRZ9fPqR0KwKt/4uabV9/aVqB5GFuWOTd0TAHw7ne/O2hfmWYViqXnakdmF2Vrs1zvKh9ftiyzogODEFGTmMAQzWF8/GePWTFvs318l7pORQAbwVj7H+Xymje3H1GC/PJW1ab7bCx0IoIoigCx1xbKaw8rrC6Ue31OjUzkCuc4xT9FAwPVu/+9PqF5EDHwiGbdk6Cqbe83EgDeuXU33XTTbU0ce1CIHLA6e9d+MYD5iKcrh4eKVZ21Apzzv73kkkuCVzZrlrHm/0iUCLrEtR5LVWEhcNOVncp3E1H37B5XDkQdsipf/IKIvKmfSytXEwR5PEoMvmgiV3hriJhaW07RLlstlvDv/Z4kGmOgiodtFL0oVyw9v9fnMx/F8uQHYM2YiFRsn23s33dgYKe7/GeeeeaICdDZUAGINU0lE15xQLAeJMCqIIGaHc9Gp4YqWFJ/0sXIQJCALcrlip9U9ZMI+nOlugsGqP38E/xZOp3+QcABiGge+vuqgagLxotrvuQhf2OtXfCFm7ZvHwhIlIAXubZYnjxgfHw82C/bRGLgWEV7m/hFAKc6lS+vfXvsotNhzEYx9eJSnejoEJZAq3skTISK4lOFNWufsnI835cXNOPjhVW50uSAmmi1WIuQTQFDqs8RiQi8+j9dc9NNv9nxmKmpTYeqzriYbvHivDoG1jRzbMLIfgDgW/yVKlvLbQMq6Oq6Ve/dkaFiae2Ta4yUQsVs1ZFHHXuOQgI2Jva1PwAU8M7BqLtoeTbz9nBjEFGzmMAQNSFfLF+aiBJvFjF90R9GxABiNir0xYXimuAzAs7V9ki3+FTUr48F+C0AFCeLKwulyb0V0eUqAhip3uVcYLYmiCKATUCixPdLpbKUy5N/1+tzCyFfLK0YGBj8sFd9zNiFu/9LVedMnlVxNLAt/WpnYZwA042OOe+88565tWlm2z8aBAljJ9uNMh8KHBoyWRUReOcaPm+ddtVVV60TwYc6NXsuEKh3qMSVT3/k3/5t344MQkRzYgJD1KSfTOS/GC1a8jQv5h5svUu90Ei1dK8xlxXKk3sXCuXvhx5hxYplb227SWC9WJGxG2f+e6FUfu1hhx99ogdW20S0IJ7jmd+riKmWobb2ewOL9np2Ll98cQ9PrSNWrp74h+KaWw9UmCu9sdWS2z1Wfx8oqg1mTZSA2Oia2Y51zg2HGjeyUb7RMRvWP/6XIYsgeOe61gASAFT1GaFrOAwODt4YNmJrisXyP8eQ2zo5dS6qAzd88xv/07EBiGhWvf/NRNRHVq1a9b/F0prjbTRwiS6Q2RgRqe5zMRYaRVflSpOSL5Yv7tR4lUolSHUhEYE6t9NG96uvvvrOYmntChPZ54igYIyBMabrS8rqr621FtZaQOQRGyUuK6y5VXKF8ktWrlx5R5dPqavyxdJfl0prRGEuN9b25DWoqxd7EGMgNjG+/4EHn5jPF18/27Ei2DvEjIJUB36s0XHOORPmAllhjOCIww7v6jJErx24vHduQ+iQrSoWy6dBTG1xm7Y1IzcbVYVAs8tHkv8SNDAR7ZLs7t3GiTrlwgvHDl738IYroDhbVbe/U4+dL6Fa2S8y1y/beiRjDJz6zdbYH04U17xs3gO0IJ0evtyovlq9r94Rb/GCoJp4RV+fKJZes6vjzshmnz7tKx91sXuBMWYfVY8gJXJFZo0zMyn1EAf114nqlYXJ2/boqkPZ5ND7IXibETnCq4cq5nwd5r2DRhU7XUbX/juKIqj39xlj/7/V+eKHG4XKpIYfEcFB8H7r50Qx/9VdYiMcdfhTjr/yu/99zy7HS6fWWPghX1vWZlooMa4iEAiiyGJVrti1PHH5mWee5rdsXquVqTABRQAxyBXLvb+zM0M6OfR/Ims/od6h2s8l8AAi1bdrZDMTE6Vi4OhENIuFu8iZaIH77/9e+QiAc1760pcefv/v77tEvb4Q0AGtXtnN/yJuF7ZV9zHwYuBV1YpMevWfKZRv/VagYZo9myPqa/4NfIsb+at31F1i4GuNjrwll7sXwCsAYHQ082qdnj7HGHueQvevhqo9yzO6gDd1Bt5XkxUBAKlefBmBd+6P1tjJKIq+sWqi0N2O6AtYrjz5SQCffP7zzzz8icc2fqhSic8RwdFGZOuNMNX5vxtE6kvzqowx8M5tUWPuSESJn6yeyM9rf9HB++/3epuINlSm4xNVtaVVBqoqe+132A+v/O4VOxUJ2NFBBx/y2kplyzMBWSICK7HbX0Sa/uiLqIklcXcikXjI2r2eaOV8W7X65ptvPfOcc1YskiUHOO+eblRabvAkokajRXeEmqENqVie/OfzX/jCa9X7RahsOUJdfGw73+tsVDUxFeHJkDGJaG6cgSEKKJ1OX6TqXm2AM4yR/dTr1pLDos1vS9+65r92Z1aMwHt9QL3/MeyiG4rF3Hc6913sWjo1dIeonlRN0ubeTL0rAsBYA0SJ8ycmCj9u5TxGxkZOwLR/kcaVZwEyZKx5FlCbVWnwc01MdS9FHLsHRGQ91N0MG90RRYPl8fHxta2cz57oM5959+If/FfuLzxwhnM+par72Mgerl7hd5HM1Lvc15YRblHgfwH/84Fo4GGIv2JVrlzo5vdBRET9hQkMUQdls+l3OOeWiuIggSYBGfTqAIiPbLS/1uq9eucUwHoRCGCsel8yRipqzZ0iiZ/lcrmGMxXdkk4NbxbvFwGtJzA1U4U1ty4KeW512Wzm3QAqAOD9thutkYnEGrN55fj4lzsxLm2zPJt9u/MxrIlQ8dtXs42iKDE+nrukR6dGRER9jgkMUY+ce+65yS1bNhjvjTnuuOPuueyyyx7u9Tk1I5VcWjFA1M4MDAAYY6ZzpcnBwKdHREREuznugSHqkeuuu26nClwL3Wg6fVZkTORrfWBaTV5qTQJ/HvLciIiIaM/AMspE1LQoYQ4O1fNCjKwPEoiIiIj2KExgiKhprhI/L2DTvt+HCkRERER7Di4hI6KmOdXpULGiyOzWjSCJiIioM5jAEFHTFHpGiBkYEcFAYvD+AKdEREREexguISOipomqlx07prfCGNz0k9VXtB+IiIiI9jRMYIioaSJyQojS687VypgRERERzROXkBFR00LMvogIoPqbAKdDREREeyDOwBBRU8bGlr8mSAUyVYgYzsAQERFRSzgDQ0RNqUxNHRAkgREBRHPtByIiIqI9EWdgiKgpov74UB1grJhEoFBERES0h2ECQ0RN8d4fFyKOiEBFvhsiFhEREe15mMAQUbP2CxFEABgvPkQsIiIi2vMwgSGi5og5OUQJZa+qq7/2tRsDnBERERHtgZjAEFFT1LuWf17ojPLLXmyME0+cDnJSREREtMdhAkNEDS0fSZ5prR1sN46IQNXfG+KciIiIaM/EMspE1JB3bqOi/SaWVfJgoEBERES0B+IMDBE15CV6dahYxsqfQsUiIiKiPQ8TGCJqyMM51dbnYGY+0hh7a5izIiIioj0RExgiakhgxgCgnSpkCoGIwBj+2CEiIqLW8UqCiBpS9aKqENP6PhiR6ib+8fHcvwQ8NSIiItrDMIEhoibIiSIAWpiAkdofALCcfSEiIqI2sQoZETUkIg+Kmo0QhbSyE0YEAhjnlRXIiIiIqC0SorM2ERERERFRN3A9BxERERER9Q0mMERERERE1DeYwBARERERUd9gAkNERERERH2DCQwREREREfUNJjBERERERNQ3mMAQEREREVHfYAJDRERERER9gwkMERERERH1DSYwRERERETUN5jAEBERERFR32ACQ0REREREfYMJDBERERER9Q0mMERERERE1DeYwBARERERUd9gAkNERERERH2DCQwREREREfUNJjBERERERNQ3mMAQEREREVHfYAJDRERERER9gwkMERERERH1DSYwRERERETUN5jAEBERERFR32ACQ0REREREfYMJDBERERER9Q0mMERERERE1DeYwBARERERUd9gAkNERERERH2DCQwREREREfUNJjBERERERNQ3mMAQEREREVHfYAJDRERERER9gwkMERERERH1DSYwRERERETUN5jAEBERERFR32ACQ0REREREfYMJDBERERER9Q0mMERERERE1DeYwBARERERUd9gAkNERERERH2DCQwREREREfUNJjBERERERNQ3mMAQEREREVHfYAJDRERERER9gwkMERERERH1DSYwRERERETUN5jAEBERERFR32ACQ0REREREfYMJDBERERER9Q0mMERERERE1DeYwBARERERUd9gAkNERERERH2DCQwREREREfUNJjBERERERNQ3mMAQEREREVHfYAJDRERERER9gwkMERERERH1DSYwRERERETUN5jAEBERERFR32ACQ0REREREfYMJDBERERER9Q0mMERERERE1DeYwBARERERUd9gAkNERERERH2DCQwREREREfUNJjBERERERNQ3mMAQEREREVHfYAJDRERERER9gwkMERERERH1DSYwRERERETUN5jAEBERERFR32ACQ0REREREfYMJDBERERER9Q0mMERERERE1DeYwBARERERUd9gAkNERERERH2DCQwREREREfUNJjBERERERNQ3mMAQEREREVHfYAJDRERERER9gwkMERERERH1DSYwRERERETUN5jAEBERERFR32ACQ0REREREfYMJDBERERER9Q0mMERERERE1DeYwBARERERUd9gAkNERERERH3j/wfNFqoEkyUybgAAAABJRU5ErkJggg==;" vertex="1" parent="1">
          <mxGeometry x="740" y="242.51" width="60" height="24.49" as="geometry" />
        </mxCell>
        <mxCell id="FmY2miY7o2QiwGdZYJ21-8" value="" style="whiteSpace=wrap;html=1;aspect=fixed;" vertex="1" parent="1">
          <mxGeometry x="290" y="160" width="290" height="290" as="geometry" />
        </mxCell>
        <mxCell id="FmY2miY7o2QiwGdZYJ21-5" value="" style="image;sketch=0;aspect=fixed;html=1;points=[];align=center;fontSize=12;image=img/lib/mscae/Docker.svg;" vertex="1" parent="1">
          <mxGeometry x="310" y="170" width="50" height="41" as="geometry" />
        </mxCell>
        <mxCell id="FmY2miY7o2QiwGdZYJ21-9" value="Kafka1" style="rounded=1;whiteSpace=wrap;html=1;" vertex="1" parent="1">
          <mxGeometry x="310" y="230" width="120" height="60" as="geometry" />
        </mxCell>
        <mxCell id="FmY2miY7o2QiwGdZYJ21-10" value="Prometus" style="rounded=1;whiteSpace=wrap;html=1;" vertex="1" parent="1">
          <mxGeometry x="450" y="230" width="120" height="60" as="geometry" />
        </mxCell>
        <mxCell id="FmY2miY7o2QiwGdZYJ21-11" value="Grafana&lt;br&gt;(Dashboard)" style="rounded=1;whiteSpace=wrap;html=1;" vertex="1" parent="1">
          <mxGeometry x="310" y="335" width="120" height="60" as="geometry" />
        </mxCell>
        <mxCell id="FmY2miY7o2QiwGdZYJ21-12" value="zoo1" style="rounded=1;whiteSpace=wrap;html=1;" vertex="1" parent="1">
          <mxGeometry x="450" y="335" width="120" height="60" as="geometry" />
        </mxCell>
        <mxCell id="FmY2miY7o2QiwGdZYJ21-2" value="" style="sketch=0;points=[[0,0,0],[0.25,0,0],[0.5,0,0],[0.75,0,0],[1,0,0],[0,1,0],[0.25,1,0],[0.5,1,0],[0.75,1,0],[1,1,0],[0,0.25,0],[0,0.5,0],[0,0.75,0],[1,0.25,0],[1,0.5,0],[1,0.75,0]];outlineConnect=0;fontColor=#232F3E;fillColor=#8C4FFF;strokeColor=#ffffff;dashed=0;verticalLabelPosition=bottom;verticalAlign=top;align=center;html=1;fontSize=12;fontStyle=0;aspect=fixed;shape=mxgraph.aws4.resourceIcon;resIcon=mxgraph.aws4.managed_streaming_for_kafka;" vertex="1" parent="1">
          <mxGeometry x="392" y="230" width="38" height="38" as="geometry" />
        </mxCell>
        <mxCell id="FmY2miY7o2QiwGdZYJ21-13" value="&lt;b&gt;PySpark Streaming&lt;/b&gt;&lt;div&gt;&lt;b&gt;Script to process traffic data&lt;br&gt;&lt;br&gt;write&amp;nbsp;&amp;nbsp;&lt;/b&gt;&lt;span style=&quot;color: rgb(230, 219, 116); background-color: rgb(28, 28, 28); font-family: Menlo, Monaco, &amp;quot;Courier New&amp;quot;, monospace; white-space: pre;&quot;&gt;traffic_analysis&lt;/span&gt;&lt;b style=&quot;background-color: transparent; color: light-dark(rgb(0, 0, 0), rgb(255, 255, 255));&quot;&gt;&amp;nbsp;on kafka&lt;/b&gt;&lt;br&gt;&lt;/div&gt;" style="rounded=1;whiteSpace=wrap;html=1;" vertex="1" parent="1">
          <mxGeometry x="630" y="268" width="170" height="75" as="geometry" />
        </mxCell>
        <mxCell id="FmY2miY7o2QiwGdZYJ21-14" value="" style="endArrow=classic;html=1;rounded=0;exitX=1;exitY=0.5;exitDx=0;exitDy=0;entryX=0;entryY=0.5;entryDx=0;entryDy=0;" edge="1" parent="1" source="FmY2miY7o2QiwGdZYJ21-1" target="FmY2miY7o2QiwGdZYJ21-8">
          <mxGeometry width="50" height="50" relative="1" as="geometry">
            <mxPoint x="390" y="420" as="sourcePoint" />
            <mxPoint x="440" y="370" as="targetPoint" />
          </mxGeometry>
        </mxCell>
        <mxCell id="FmY2miY7o2QiwGdZYJ21-16" value="" style="endArrow=classic;startArrow=classic;html=1;rounded=0;exitX=1;exitY=0.5;exitDx=0;exitDy=0;entryX=0;entryY=0.5;entryDx=0;entryDy=0;" edge="1" parent="1" source="FmY2miY7o2QiwGdZYJ21-8" target="FmY2miY7o2QiwGdZYJ21-13">
          <mxGeometry width="50" height="50" relative="1" as="geometry">
            <mxPoint x="640" y="530" as="sourcePoint" />
            <mxPoint x="690" y="480" as="targetPoint" />
          </mxGeometry>
        </mxCell>
        <mxCell id="FmY2miY7o2QiwGdZYJ21-18" value="&lt;b&gt;Laptop&lt;/b&gt;" style="rounded=1;whiteSpace=wrap;html=1;strokeColor=none;" vertex="1" parent="1">
          <mxGeometry x="330" y="20" width="120" height="60" as="geometry" />
        </mxCell>
        <mxCell id="FmY2miY7o2QiwGdZYJ21-19" value="&lt;b&gt;docker compose&lt;/b&gt;" style="rounded=1;whiteSpace=wrap;html=1;strokeColor=none;" vertex="1" parent="1">
          <mxGeometry x="370" y="100" width="120" height="60" as="geometry" />
        </mxCell>
        <mxCell id="FmY2miY7o2QiwGdZYJ21-20" value="Python" style="rounded=0;whiteSpace=wrap;html=1;strokeColor=none;" vertex="1" parent="1">
          <mxGeometry x="700" y="242.51" width="50" height="20" as="geometry" />
        </mxCell>
      </root>
    </mxGraphModel>
  </diagram>
</mxfile>
